<?xml version="1.0" encoding="utf-8"?>
<!-- Generator: Adobe Illustrator 17.0.2, SVG Export Plug-In . SVG Version: 6.00 Build 0)  -->
<!DOCTYPE svg PUBLIC "-//W3C//DTD SVG 1.1//EN" "http://www.w3.org/Graphics/SVG/1.1/DTD/svg11.dtd">
<svg version="1.1" id="Layer_1" xmlns="http://www.w3.org/2000/svg" xmlns:xlink="http://www.w3.org/1999/xlink" x="0px" y="0px"
	 width="50px" height="50px" viewBox="0 0 50 50" style="enable-background:new 0 0 50 50;" xml:space="preserve">
<g>
	<path style="fill:#E6E6E6;" d="M48,25c0,12.719-10.292,23.011-23.011,23.011C12.292,48.011,2,37.719,2,25
		c0-12.697,10.292-23.01,22.989-23.01C37.708,1.989,48,12.303,48,25z M30.764,43.696c7.91-2.607,13.64-9.978,13.64-18.697
		c0-10.719-8.697-19.415-19.416-19.415C14.292,5.585,5.596,14.281,5.596,25c0,8.719,5.753,16.112,13.685,18.697v-3.663
		c-5.663,1.281-6.854-2.652-6.854-2.652c-0.899-2.315-2.202-2.921-2.202-2.921c-1.82-1.236,0.135-1.213,0.135-1.213
		c2,0.135,3.056,2.045,3.056,2.045c1.888,3.236,5.011,2.067,5.978,1.595c0.292-1.416,1.393-1.708,1.753-1.82
		c-5.101-0.539-10.562-2.382-10.562-11.214c0-2.472,0.876-4.494,2.314-6.067c-0.225-0.584-1.011-2.876,0.225-6
		c0,0,1.91-0.606,6.225,2.315c1.798-0.494,3.73-0.742,5.663-0.764c1.91,0.023,3.843,0.27,5.663,0.764
		c4.315-2.921,6.202-2.315,6.202-2.315c1.236,3.124,0.472,5.416,0.225,6c1.461,1.573,2.337,3.596,2.337,6.067
		c0,8.832-5.461,10.652-10.562,11.191c0.921,0.629,1.888,1.82,1.888,4.09V43.696z"/>
</g>
</svg>
