<?xml version="1.0" encoding="utf-8"?>
<!-- Generator: Adobe Illustrator 17.0.2, SVG Export Plug-In . SVG Version: 6.00 Build 0)  -->
<!DOCTYPE svg PUBLIC "-//W3C//DTD SVG 1.1//EN" "http://www.w3.org/Graphics/SVG/1.1/DTD/svg11.dtd">
<svg version="1.1" id="Layer_1" xmlns="http://www.w3.org/2000/svg" xmlns:xlink="http://www.w3.org/1999/xlink" x="0px" y="0px"
	 width="50px" height="50px" viewBox="0 0 50 50" style="enable-background:new 0 0 50 50;" xml:space="preserve">
<path style="fill-rule:evenodd;clip-rule:evenodd;fill:#B3B3B3;" d="M2,25c0,12.703,10.297,23,23,23s23-10.297,23-23
	C48,12.297,37.703,2,25,2S2,12.297,2,25z M28.952,15.139c1.206-0.784,3.414-1.896,4.305-1.585c0.241,0.382,0.761,1.494,0.315,3.937
	c0.302,0.536,1.874,1.677,1.88,4.905c-0.025,1.19-0.151,2.195-0.385,3.045c0.044,0-0.299,1.054-0.38,1.051
	c-1.043,2.251-3.182,3.091-6.638,3.44c1.12,0.693,1.441,1.562,1.441,3.914c0,2.352-0.032,2.668-0.025,3.209
	c0.012,0.888,1.336,1.313,1.286,1.598c-0.05,0.285-1.108,0.239-1.602,0.07c-1.401-0.48-1.261-1.626-1.261-1.626l-0.047-3.145
	c0,0,0.096-1.693-0.541-1.693v5.148c0,1.119,0.798,1.459,0.798,1.872c0,0.711-1.456-0.067-1.905-0.511
	c-0.684-0.674-0.606-2.105-0.589-3.237c0.016-1.093-0.01-3.483-0.01-3.483l-0.464,0.009c0,0,0.19,5.221-0.245,6.172
	c-0.563,1.222-2.26,1.642-2.26,1.085c0-0.374,0.418-0.255,0.649-1.094c0.197-0.713,0.13-6.035,0.13-6.035s-0.544,0.316-0.544,1.313
	c0,0.456-0.013,3.063-0.013,3.838c0,0.976-1.41,1.531-2.088,1.531c-0.343,0-0.77-0.017-0.77-0.195c0-0.452,1.289-0.716,1.289-1.655
	c0-0.814-0.018-2.908-0.018-2.908s-0.65,0.109-1.578,0.109c-2.338,0-3.077-1.466-3.429-2.286c-0.458-1.069-1.052-1.57-1.683-1.971
	c-0.387-0.247-0.476-0.537-0.028-0.62c2.069-0.383,2.598,2.306,3.98,2.735c0.986,0.306,2.255,0.174,2.886-0.227
	c0.083-0.822,0.686-1.532,1.188-1.906c-3.515-0.332-5.599-1.532-6.68-3.46c-0.014,0-0.509-1.048-0.468-1.048
	c-0.338-0.979-0.488-2.1-0.488-3.352c0-2.223,0.705-3.062,1.651-4.247c-0.724-2.535,0.26-4.267,0.26-4.267s1.522-0.31,4.398,1.714
	C22.829,14.628,26.985,14.573,28.952,15.139z"/>
</svg>
