<?xml version="1.0" encoding="utf-8"?>
<!-- Generator: Adobe Illustrator 17.0.2, SVG Export Plug-In . SVG Version: 6.00 Build 0)  -->
<!DOCTYPE svg PUBLIC "-//W3C//DTD SVG 1.1//EN" "http://www.w3.org/Graphics/SVG/1.1/DTD/svg11.dtd">
<svg version="1.1" id="Layer_1" xmlns="http://www.w3.org/2000/svg" xmlns:xlink="http://www.w3.org/1999/xlink" x="0px" y="0px"
	 width="50px" height="50px" viewBox="0 0 50 50" style="enable-background:new 0 0 50 50;" xml:space="preserve">
<path style="fill-rule:evenodd;clip-rule:evenodd;fill:#B3B3B3;" d="M2,27.004c1.016,11.789,10.902,21.042,22.954,21.042
	C37.682,48.046,48,37.728,48,25C48,12.272,37.682,1.954,24.954,1.954C12.902,1.954,3.016,11.207,2,22.996V27.004z M19.704,30.027
	c-1.417-0.488-2.688-1.611-3.01-2.669c-0.097-0.342-0.064-0.358,0.837-0.358l0.934-0.016l-0.789-0.374
	c-0.934-0.472-1.787-1.269-2.205-2.083c-0.306-0.586-0.692-2.067-0.58-2.181c0.032-0.049,0.37,0.049,0.757,0.179
	c1.111,0.407,1.256,0.309,0.612-0.374c-1.207-1.237-1.578-3.076-0.998-4.817l0.274-0.781l1.062,1.058
	c2.173,2.132,4.733,3.401,7.662,3.776l0.805,0.098l-0.048-0.797c-0.145-2.067,1.127-3.955,3.139-4.687
	c0.74-0.26,1.996-0.293,2.817-0.065c0.322,0.098,0.934,0.423,1.368,0.716l0.789,0.537l0.869-0.277
	c0.483-0.146,1.127-0.391,1.417-0.553c0.274-0.146,0.515-0.228,0.515-0.179c0,0.277-0.596,1.221-1.095,1.741
	c-0.676,0.733-0.483,0.797,0.885,0.309c0.821-0.277,0.837-0.277,0.676,0.032c-0.097,0.163-0.596,0.732-1.127,1.253
	c-0.901,0.895-0.95,0.993-0.95,1.741c0,1.156-0.547,3.564-1.095,4.883c-1.014,2.473-3.187,5.029-5.36,6.314
	c-3.058,1.806-7.131,2.262-10.56,1.204c-1.143-0.358-3.107-1.269-3.107-1.432c0-0.049,0.596-0.114,1.32-0.13
	c1.513-0.032,3.026-0.456,4.314-1.204l0.869-0.521L19.704,30.027z"/>
</svg>
