<?xml version="1.0" encoding="utf-8"?>
<!-- Generator: Adobe Illustrator 17.0.2, SVG Export Plug-In . SVG Version: 6.00 Build 0)  -->
<!DOCTYPE svg PUBLIC "-//W3C//DTD SVG 1.1//EN" "http://www.w3.org/Graphics/SVG/1.1/DTD/svg11.dtd">
<svg version="1.1" id="Layer_1" xmlns="http://www.w3.org/2000/svg" xmlns:xlink="http://www.w3.org/1999/xlink" x="0px" y="0px"
	 width="50px" height="50px" viewBox="0 0 50 50" style="enable-background:new 0 0 50 50;" xml:space="preserve">
<path style="fill-rule:evenodd;clip-rule:evenodd;fill:#333333;" d="M2,25c0,12.702,10.297,23,23,23s23-10.298,23-23
	C48,12.297,37.703,2,25,2S2,12.297,2,25z M19.138,35.838h-5.205V20.177h5.205V35.838z M16.535,18.04h-0.033
	c-1.747,0-2.877-1.203-2.877-2.707c0-1.535,1.164-2.705,2.945-2.705c1.78,0,2.877,1.17,2.911,2.705
	C19.481,16.837,18.35,18.04,16.535,18.04z M31.915,19.81c3.425,0,5.993,2.239,5.993,7.049l0,8.98h-5.205V27.46
	c0-2.105-0.753-3.541-2.637-3.541c-1.438,0-2.294,0.968-2.671,1.903c-0.138,0.335-0.171,0.802-0.171,1.27v8.746h-5.205
	c0,0,0.069-14.191,0-15.661h5.205v2.218C27.915,21.33,29.152,19.81,31.915,19.81z"/>
</svg>
