<?xml version="1.0" encoding="utf-8"?>
<!-- Generator: Adobe Illustrator 17.0.2, SVG Export Plug-In . SVG Version: 6.00 Build 0)  -->
<!DOCTYPE svg PUBLIC "-//W3C//DTD SVG 1.1//EN" "http://www.w3.org/Graphics/SVG/1.1/DTD/svg11.dtd">
<svg version="1.1" id="Layer_1" xmlns="http://www.w3.org/2000/svg" xmlns:xlink="http://www.w3.org/1999/xlink" x="0px" y="0px"
	 width="50px" height="50px" viewBox="0 0 50 50" style="enable-background:new 0 0 50 50;" xml:space="preserve">
<g>
	<path style="fill-rule:evenodd;clip-rule:evenodd;fill:#333333;" d="M7.005,39.311c0.147,0.185,0.291,0.373,0.444,0.554
		c-0.088-0.104-0.166-0.218-0.252-0.324C7.134,39.463,7.067,39.389,7.005,39.311z"/>
	<path style="fill-rule:evenodd;clip-rule:evenodd;fill:#333333;" d="M7.465,39.885C7.466,39.885,7.466,39.885,7.465,39.885
		c-0.005-0.007-0.01-0.014-0.016-0.021C7.455,39.871,7.46,39.878,7.465,39.885z"/>
	<path style="fill-rule:evenodd;clip-rule:evenodd;fill:#333333;" d="M7.749,40.2c-0.094-0.107-0.182-0.22-0.275-0.328
		c-0.003,0.004-0.006,0.009-0.008,0.013C7.557,39.992,7.655,40.094,7.749,40.2z"/>
	<path style="fill-rule:evenodd;clip-rule:evenodd;fill:#333333;" d="M25.157,47.996c-0.03,0-0.06,0.002-0.09,0.002
		c-0.001,0.001-0.002,0.001-0.003,0.002C25.095,48,25.125,47.996,25.157,47.996z"/>
	<path style="fill-rule:evenodd;clip-rule:evenodd;fill:#333333;" d="M11.311,43.484c-0.001-0.007-0.002-0.013-0.003-0.02
		c-0.243-0.181-0.486-0.361-0.722-0.551C10.825,43.107,11.063,43.301,11.311,43.484z"/>
	<path style="fill-rule:evenodd;clip-rule:evenodd;fill:#333333;" d="M28.483,43.032c0-2.736-1.753-4.181-5.838-7.091
		c-0.424-0.039-0.694-0.039-1.233-0.039c-0.482,0-3.372,0.096-5.626,0.848c-1.175,0.424-4.605,1.715-4.605,5.53
		c0,0.407,0.044,0.803,0.127,1.184C15.134,46.307,19.866,48,25,48c0.022,0,0.044-0.002,0.067-0.002
		C27.317,47.01,28.483,45.203,28.483,43.032z"/>
	<path style="fill-rule:evenodd;clip-rule:evenodd;fill:#333333;" d="M6.747,38.989c-0.086-0.111-0.162-0.23-0.246-0.343
		c-0.036-0.049-0.076-0.094-0.112-0.143C6.507,38.665,6.624,38.829,6.747,38.989z"/>
	<path style="fill-rule:evenodd;clip-rule:evenodd;fill:#333333;" d="M25.535,21.857c0-3.873-2.293-9.871-6.744-9.871
		c-1.387,0-2.89,0.697-3.757,1.771c-0.906,1.125-1.175,2.57-1.175,3.958c0,3.603,2.081,9.557,6.705,9.557
		c1.329,0,2.775-0.655,3.642-1.503C25.438,24.535,25.535,22.82,25.535,21.857z"/>
	<path style="fill-rule:evenodd;clip-rule:evenodd;fill:#333333;" d="M28.735,47.694C39.66,45.909,48,36.43,48,25
		c0-2.176-0.302-4.282-0.867-6.277h-5.447v6.043h-2.567v-6.043h-5.991v-2.515h5.991v-5.99h2.567v5.99h4.554
		C42.784,7.872,34.585,2,25,2C12.297,2,2,12.297,2,25c0,2.839,0.515,5.558,1.455,8.069c0.209,0.558,0.446,1.101,0.696,1.637
		c0.038,0.082,0.078,0.163,0.117,0.245c0.064,0.133,0.135,0.262,0.201,0.394c0.19,0.376,0.384,0.75,0.593,1.114
		c0.119,0.207,0.247,0.409,0.373,0.612c0.203,0.328,0.411,0.652,0.629,0.969c0.141,0.205,0.287,0.407,0.435,0.607
		c0.225,0.304,0.457,0.602,0.696,0.894c0.091,0.111,0.184,0.221,0.277,0.331c0.643-1.077,1.638-2.135,3.109-3.005
		c3.333-2.042,7.823-2.312,10.25-2.466c-0.751-0.963-1.618-1.984-1.618-3.661c0-0.906,0.27-1.445,0.54-2.081
		c-0.597,0.058-1.175,0.116-1.715,0.116c-5.684,0-8.902-4.239-8.902-8.42c0-2.466,1.137-5.206,3.43-7.189
		c3.064-2.518,6.705-2.948,9.595-2.948h11.04l-3.43,1.929H26.46c1.233,1.019,3.796,3.164,3.796,7.244
		c0,3.969-2.254,5.838-4.489,7.611c-0.713,0.693-1.503,1.445-1.503,2.62c0,1.175,0.79,1.831,1.387,2.312l1.927,1.503
		c2.37,1.965,4.509,3.796,4.509,7.495C32.086,43.369,30.949,45.815,28.735,47.694z"/>
	<path style="fill-rule:evenodd;clip-rule:evenodd;fill:#333333;" d="M46.26,16.208h-0.02c0.068,0.164,0.143,0.325,0.207,0.492
		C46.383,16.536,46.327,16.369,46.26,16.208z"/>
	<path style="fill-rule:evenodd;clip-rule:evenodd;fill:#333333;" d="M28.729,47.699c0.002-0.002,0.004-0.004,0.006-0.005
		c-0.029,0.005-0.057,0.011-0.085,0.015C28.676,47.705,28.703,47.703,28.729,47.699z"/>
	<polygon style="fill-rule:evenodd;clip-rule:evenodd;fill:#333333;" points="3.455,33.069 3.455,33.069 3.454,33.067 	"/>
	<path style="fill-rule:evenodd;clip-rule:evenodd;fill:#333333;" d="M6.133,38.143c-0.024-0.034-0.044-0.07-0.068-0.104
		c-0.072-0.105-0.152-0.204-0.222-0.31C5.937,37.87,6.037,38.005,6.133,38.143z"/>
	<path style="fill-rule:evenodd;clip-rule:evenodd;fill:#333333;" d="M4.191,34.798c0.049,0.104,0.102,0.206,0.153,0.31
		c-0.026-0.052-0.05-0.105-0.076-0.158C4.244,34.899,4.215,34.85,4.191,34.798z"/>
	<path style="fill-rule:evenodd;clip-rule:evenodd;fill:#333333;" d="M5.689,37.485c-0.088-0.136-0.168-0.277-0.253-0.415
		c-0.084-0.136-0.18-0.264-0.261-0.402C5.339,36.945,5.514,37.215,5.689,37.485z"/>
	<path style="fill-rule:evenodd;clip-rule:evenodd;fill:#333333;" d="M4.063,34.521c0.042,0.093,0.084,0.185,0.128,0.277
		c-0.014-0.03-0.025-0.062-0.039-0.093C4.123,34.644,4.092,34.583,4.063,34.521z"/>
	<path style="fill-rule:evenodd;clip-rule:evenodd;fill:#333333;" d="M5.165,36.65c-0.037-0.062-0.066-0.129-0.102-0.192
		c-0.012-0.021-0.026-0.042-0.039-0.063C5.073,36.479,5.116,36.566,5.165,36.65z"/>
	<path style="fill-rule:evenodd;clip-rule:evenodd;fill:#333333;" d="M4.782,35.956c-0.109-0.201-0.209-0.407-0.312-0.612
		c-0.04-0.08-0.086-0.156-0.126-0.236C4.484,35.394,4.631,35.676,4.782,35.956z"/>
</g>
</svg>
