<?xml version="1.0" encoding="utf-8"?>
<!-- Generator: Adobe Illustrator 17.0.2, SVG Export Plug-In . SVG Version: 6.00 Build 0)  -->
<!DOCTYPE svg PUBLIC "-//W3C//DTD SVG 1.1//EN" "http://www.w3.org/Graphics/SVG/1.1/DTD/svg11.dtd">
<svg version="1.1" xmlns="http://www.w3.org/2000/svg" xmlns:xlink="http://www.w3.org/1999/xlink" x="0px" y="0px" width="100px"
	 height="100px" viewBox="0 0 100 100" style="enable-background:new 0 0 100 100;" xml:space="preserve">
<g id="bg">
</g>
<g id="animal">
	<path d="M76.957,34.193c3.102-1.215,5.223-3.851,5.223-6.915c0-4.216-4.07-7.634-9.09-7.634c-3.334,0-6.143,1.511-7.7,3.76
		c-3.744-2.093-7.964-3.467-12.462-3.923c-0.365-0.036-0.731-1.945-1.1-1.97c-0.404-0.027-0.808,1.832-1.216,1.82
		c-0.323-0.009-0.646-0.014-0.97-0.014c-0.331,0-1.6-3.751-1.928-3.74c-0.42,0.013,0.1,3.789-0.314,3.818
		c-4.65,0.316-9.025,1.609-12.91,3.674c-1.629-2.059-4.399-3.426-7.561-3.426c-5.019,0-9.089,3.418-9.089,7.634
		c0,2.909,1.953,5.419,4.804,6.704c-3.053,4.78-4.824,10.427-4.824,16.479c0,7.164,5.433,15.03,9.903,21.05
		c6.262,8.439,13.079,12.911,21.92,12.911c8.24,0,15.742-5.41,21.978-13.029c5.157-6.302,9.842-13.146,9.842-20.932
		c0-3.521-0.605-6.9-1.706-10.055C79.199,38.207,78.305,36.123,76.957,34.193z"/>
	<g>
		<path style="fill:#FFFFFF;" d="M46.52,54.428v-1.348c0-1.166,0.249-2.18,0.747-3.043c0.498-0.862,1.409-1.78,2.733-2.751
			c1.275-0.911,2.117-1.652,2.524-2.223c0.407-0.571,0.61-1.209,0.61-1.913c0-0.79-0.292-1.391-0.875-1.804
			c-0.583-0.413-1.397-0.62-2.442-0.62c-1.822,0-3.899,0.595-6.232,1.786l-1.986-3.99c2.709-1.518,5.582-2.278,8.619-2.278
			c2.502,0,4.492,0.601,5.968,1.804c1.476,1.203,2.214,2.806,2.214,4.81c0,1.336-0.304,2.49-0.911,3.462
			c-0.607,0.972-1.761,2.065-3.462,3.28c-1.166,0.862-1.904,1.518-2.214,1.968c-0.31,0.449-0.465,1.039-0.465,1.767v1.093H46.52z
			 M45.937,60.66c0-1.02,0.273-1.792,0.82-2.314c0.547-0.522,1.342-0.784,2.387-0.784c1.008,0,1.789,0.267,2.341,0.802
			c0.553,0.534,0.829,1.3,0.829,2.296c0,0.96-0.279,1.716-0.838,2.269c-0.559,0.553-1.336,0.829-2.332,0.829
			c-1.02,0-1.81-0.27-2.369-0.811C46.216,62.406,45.937,61.643,45.937,60.66z"/>
	</g>
</g>
</svg>
