<?xml version="1.0" encoding="utf-8"?>
<!-- Generator: Adobe Illustrator 16.0.0, SVG Export Plug-In . SVG Version: 6.00 Build 0)  -->
<!DOCTYPE svg PUBLIC "-//W3C//DTD SVG 1.1//EN" "http://www.w3.org/Graphics/SVG/1.1/DTD/svg11.dtd">
<svg version="1.1" xmlns="http://www.w3.org/2000/svg" xmlns:xlink="http://www.w3.org/1999/xlink" x="0px" y="0px" width="100px"
	 height="100px" viewBox="0 0 100 100" style="enable-background:new 0 0 100 100;" xml:space="preserve">
<g id="bg" style="display:none;">
</g>
<g id="animal">
	<g>
		<g>
			<g>
				<path style="fill-rule:evenodd;clip-rule:evenodd;" d="M32.096,45.702c-2.11,0.496-4.205,0.586-6.297,0.138
					c-0.926-0.199-1.842-0.466-2.739-0.772c-1.968-0.671-3.922-1.381-5.877-2.09c-0.382-0.14-0.743-0.336-1.105-0.522
					c-1.151-0.591-1.15-0.594-1.02-1.924c0.687-0.069,1.409-0.038,2.062-0.235c0.899-0.272,1.799-0.628,2.603-1.108
					c1.688-1.009,3.533-1.503,5.426-1.879c2.114-0.419,4.248-0.616,6.524-0.412c-0.15-0.181-0.218-0.286-0.308-0.367
					c-2.917-2.602-3.804-5.886-3.07-9.617c0.339-1.723,0.96-3.391,1.464-5.08c0.05-0.169,0.16-0.324,0.261-0.474
					c1.422-2.119,1.616-3.107,1.07-5.533c0.588-0.173,1.101,0.042,1.459,0.443c0.492,0.55,0.932,1.165,1.303,1.804
					c0.981,1.699,1.127,3.604,1.289,5.506c0.131,1.538,0.346,3.072,1.091,4.456c0.286,0.532,0.641,1.057,1.071,1.475
					c0.759,0.733,1.508,1.131,2.73,0.622c3.523-1.465,7.229-2.19,11.071-2.085c3.329,0.091,6.499,0.862,9.529,2.217
					c0.44,0.198,0.778,0.197,1.191-0.041c1.462-0.843,2.264-2.171,2.597-3.742c0.333-1.567,0.517-3.171,0.689-4.768
					c0.202-1.852,0.864-3.508,1.951-4.996c0.55-0.752,1.135-0.98,1.953-0.891c-0.734,2.077-0.004,3.801,1.025,5.628
					c0.837,1.485,1.249,3.246,1.643,4.934c0.567,2.429,0.59,4.896-0.671,7.146c-0.589,1.051-1.461,1.945-2.222,2.896
					c-0.132,0.165-0.353,0.259-0.591,0.428c1.704,0.108,3.237,0.138,4.754,0.317c2.958,0.349,5.743,1.135,8.135,3.084
					c1.046,0.854,2.425,1.037,3.796,0.942c0.369,1.261-0.151,1.98-1.505,2.324c-1.969,0.5-3.925,1.063-5.867,1.661
					c-1.269,0.391-2.476,1.017-3.762,1.311c-1.854,0.423-3.743,0.215-5.603-0.15c-0.219-0.043-0.438-0.077-0.619-0.109
					c-0.092,1.128-0.085,2.224-0.29,3.28c-0.326,1.678-0.943,3.237-2.166,4.524c-0.949,1.001-1.314,2.329-1.595,3.633
					c-0.471,2.19-0.814,4.406-1.249,6.605c-0.47,2.375-0.955,4.741-1.964,6.977c-0.364,0.808-0.417,1.755-0.617,2.636
					c-0.387,1.691-1.013,3.278-1.909,4.772c-0.427,0.712-0.69,1.521-1.053,2.273c-1.053,2.184-2.855,3.207-5.224,3.275
					c-1.496,0.044-2.994,0.009-4.492,0.009c-2.735,0-4.945-1.695-5.734-4.336c-0.186-0.622-0.52-1.203-0.809-1.792
					c-0.954-1.946-1.575-3.98-1.911-6.132c-0.261-1.671-0.822-3.291-1.149-4.953c-0.462-2.351-0.817-4.723-1.248-7.079
					c-0.252-1.379-0.476-2.773-0.874-4.112c-0.238-0.802-0.758-1.53-1.204-2.26c-1.387-2.269-2.06-4.714-1.895-7.378
					c0.005-0.09,0.014-0.181,0.012-0.271C32.156,45.866,32.134,45.824,32.096,45.702z"/>
			</g>
			<g>
				<g>
					<circle style="fill:#FFFFFF;" cx="42.187" cy="47.213" r="6.799"/>
					<circle cx="42.187" cy="47.213" r="3.621"/>
				</g>
				<g>
					<circle style="fill:#FFFFFF;" cx="58.145" cy="47.417" r="5.94"/>
					<circle cx="58.145" cy="47.417" r="3.164"/>
				</g>
			</g>
			<g>
				<path style="fill:#FFFFFF;" d="M42.315,75.584c0.165,0.493,1.436,0.414,1.764,0.736c0.604,0.596,0.909,1.859,1.646,1.612
					c1.138-0.38,1.681-1.824,1.212-3.225c-0.468-1.4-1.77-2.228-2.908-1.847C42.892,73.242,41.847,74.185,42.315,75.584z"/>
				<path style="fill:#FFFFFF;" d="M56.519,75.584c-0.165,0.493-1.436,0.414-1.764,0.736c-0.604,0.596-0.909,1.859-1.646,1.612
					c-1.139-0.38-1.682-1.824-1.213-3.225s1.771-2.228,2.909-1.847S56.986,74.185,56.519,75.584z"/>
			</g>
		</g>
	</g>
</g>
</svg>
