<?xml version="1.0" encoding="utf-8"?>
<!-- Generator: Adobe Illustrator 16.0.0, SVG Export Plug-In . SVG Version: 6.00 Build 0)  -->
<!DOCTYPE svg PUBLIC "-//W3C//DTD SVG 1.1//EN" "http://www.w3.org/Graphics/SVG/1.1/DTD/svg11.dtd">
<svg version="1.1" xmlns="http://www.w3.org/2000/svg" xmlns:xlink="http://www.w3.org/1999/xlink" x="0px" y="0px" width="100px"
	 height="100px" viewBox="0 0 100 100" style="enable-background:new 0 0 100 100;" xml:space="preserve">
<g id="bg" style="display:none;">
</g>
<g id="animal">
	<g>
		<path d="M77.907,30.179c-2.263,0-4.278,1.217-5.585,3.113c-2.26-6.406-7.129-10.583-13.456-11.619
			c-1.083-0.177-4.345-3.007-5.506-2.996c-1.216,0.012-0.336,2.874-1.626,3.102c-0.578,0.103-1.482-2.01-2.072-1.863
			c-1.022-0.277-1.703,1.751-2.682,1.608c-1.21-0.177-2.385-3.506-3.519-3.487c-0.537,0.009-1.065,3.292-1.583,3.343
			c-6.685,0.66-11.783,4.782-14.231,11.201c-1.259-2.051-3.326-3.39-5.665-3.39c-3.837,0-6.947,3.6-6.947,8.04s3.11,8.04,6.947,8.04
			c1.541,0,2.965-0.582,4.117-1.565c0.282,4.523,1.656,8.06,3.842,10.761c-2.463,2.188-3.898,5.139-3.898,9.005
			c0,7.726,5.662,12.579,13.861,14.625c0.643,0.16,1.975,2.674,1.975,2.674s2.099-1.898,3.191-1.786
			c0.732,0.075,2.233,1.881,2.233,1.881s1.632-1.647,2.465-1.647c0.61,0,2.564,2.745,2.564,2.745s1.44-2.877,2.349-2.967
			c0.81-0.081,2.063,1.402,2.063,1.402s2.134-2.1,3.146-2.357c8.143-2.077,13.816-6.913,13.816-14.569
			c0-3.866-1.434-6.817-3.898-9.005c1.991-2.46,3.309-5.614,3.741-9.574c1.205,1.075,2.716,1.715,4.357,1.715
			c3.937,0,7.128-3.677,7.128-8.214C85.035,33.857,81.844,30.179,77.907,30.179z"/>
		<g>
			<g>
				<circle style="fill:#FFFFFF;" cx="41.879" cy="39.063" r="7.238"/>
				<circle cx="41.878" cy="39.063" r="3.854"/>
			</g>
			<g>
				<circle style="fill:#FFFFFF;" cx="58.866" cy="39.281" r="6.323"/>
				<circle cx="58.866" cy="39.281" r="3.368"/>
			</g>
		</g>
		<g>
			<path style="fill:#FFFFFF;" d="M50.121,64.934c8.602,0,15.947-1.41,18.874-1.387c0.001-0.049,0.003-0.098,0.003-0.146
				c0-6.67-8.443-12.076-18.859-12.076c-9.848,0-17.932,4.834-18.783,10.998C34.353,62.73,41.625,64.934,50.121,64.934z"/>
			<path style="fill:#FFFFFF;" d="M50.121,68.336c-8.545,0-15.853-2.494-18.817-4.326c0.495,6.387,8.739,11.467,18.835,11.467
				c9.393,0,17.181-4.396,18.62-10.151C65.686,66.744,58.498,68.336,50.121,68.336z"/>
		</g>
	</g>
</g>
</svg>
