<?xml version="1.0" encoding="utf-8"?>
<!-- Generator: Adobe Illustrator 17.0.2, SVG Export Plug-In . SVG Version: 6.00 Build 0)  -->
<!DOCTYPE svg PUBLIC "-//W3C//DTD SVG 1.1//EN" "http://www.w3.org/Graphics/SVG/1.1/DTD/svg11.dtd">
<svg version="1.1" xmlns="http://www.w3.org/2000/svg" xmlns:xlink="http://www.w3.org/1999/xlink" x="0px" y="0px" width="100px"
	 height="100px" viewBox="0 0 100 100" style="enable-background:new 0 0 100 100;" xml:space="preserve">
<g id="bg" style="display:none;">
	<g style="display:inline;">
		<g>
			<path style="fill:#3FB4FF;" d="M100,49.998C100,77.607,77.62,100,50.006,100C22.399,100,0,77.607,0,49.998
				C0,22.404,22.399,0,50.006,0C77.62,0,100,22.404,100,49.998z"/>
		</g>
	</g>
</g>
<g id="animal">
	<g>
		<path style="fill-rule:evenodd;clip-rule:evenodd;" d="M80.055,60.84c0,10.655-13.456,22.06-30.055,22.06
			c-16.598,0-30.054-11.404-30.054-22.06c0-10.657,13.456-19.294,30.054-19.294C66.599,41.546,80.055,50.183,80.055,60.84z"/>
		<ellipse style="fill-rule:evenodd;clip-rule:evenodd;" cx="51.057" cy="44.082" rx="25.654" ry="20.465"/>
		<ellipse style="fill-rule:evenodd;clip-rule:evenodd;" cx="69.177" cy="50.452" rx="9.955" ry="9.54"/>
		<path style="fill-rule:evenodd;clip-rule:evenodd;" d="M41.199,49.529c0,5.27-4.844,9.541-10.819,9.541
			c-5.975,0-8.975-4.271-8.975-9.541c0-5.271,3-9.541,8.975-9.541C36.355,39.988,41.199,44.259,41.199,49.529z"/>
		<g>
			<g>
				<circle style="fill:#FFFFFF;" cx="40.458" cy="46.108" r="8.321"/>
				<circle cx="40.458" cy="46.108" r="4.432"/>
			</g>
			<g>
				<circle style="fill:#FFFFFF;" cx="60.522" cy="46.359" r="7.271"/>
				<circle cx="60.521" cy="46.359" r="3.872"/>
			</g>
		</g>
		<g>
			<path style="fill:#FFFFFF;" d="M35.26,53.651c-2.562,0.686-6.279,0.688-7.491,0.73c-1.471,0.062-5.634-0.722-5.681-0.73
				l-0.375,0.72c0.199,0.04,4.523,1.033,6.089,0.933C29.591,55.188,34.388,54.14,35.26,53.651z"/>
			<path style="fill:#FFFFFF;" d="M71.341,56.712c0.138,0.015,0.287,0.03,0.447,0.03c2.165,0,6.354-1.67,6.854-1.881l-0.346-0.49
				c-1.396,0.587-5.374,1.639-6.818,1.43c-1.497-0.225-3.856-1.243-5.938-2.143c-0.004-0.002-0.009-0.003-0.014-0.005
				C66.881,54.386,69.101,56.457,71.341,56.712z"/>
		</g>
		<path style="fill-rule:evenodd;clip-rule:evenodd;fill:#FFFFFF;" d="M67.567,65.299c2.569-1.039-7.831,6.928-17.491,6.928
			c-9.66,0-20.136-7.754-17.492-6.928c5.655,1.766,7.832,2.308,17.492,2.308C59.736,67.606,61.299,67.834,67.567,65.299z"/>
		<g>
			<path style="fill:#FFFFFF;" d="M76.739,44.254c-0.115-0.064-11.788-6.156-15.517-6.156c-2.554,0-4.446,0.439-6.115,0.828
				c-1.36,0.316-2.529,0.586-3.742,0.544c-1.179-0.045-2.417-0.602-3.851-1.247c-1.924-0.866-4.104-1.849-6.742-1.849
				c-6.184,0-15.023,4.575-15.11,4.623l0.144-0.692c0.365-0.204,8.544-4.853,14.967-4.853c2.835,0,5.212,1.07,7.121,1.929
				c1.345,0.606,2.507,1.129,3.507,1.167c1.078,0.054,2.202-0.22,3.498-0.521c1.633-0.379,3.666-0.852,6.324-0.852
				c3.965,0,15.009,6.323,15.488,6.589L76.739,44.254z"/>
		</g>
		<g>
			<path style="fill:none;" d="M59.369,24.734c-0.945-0.207-1.864-0.429-2.539-0.496c-0.559-0.056-1.173-0.176-1.76-0.351
				c-1.315-0.164-2.662-0.25-4.034-0.25c-14.289,0-25.914,9.229-25.914,20.577c0,11.347,11.625,20.576,25.914,20.576
				c14.289,0,25.914-9.229,25.914-20.576c0-6.096-3.358-11.577-8.678-15.349c-0.646-0.365-1.325-0.785-1.931-1.243
				C64.236,26.396,61.89,25.416,59.369,24.734z"/>
			<path d="M68.272,28.866c-0.618-0.438-1.262-0.854-1.931-1.243C66.947,28.081,67.627,28.501,68.272,28.866z"/>
			<path d="M73.791,32.794c0.639,0.236,1.154,0.119,1.451-0.646c0.876-2.255-0.598-4.849,0.142-7.229
				c1.59-5.122,5.422-6.331,3.46-8.661c-1.317-1.562-4.716,0.752-8.804,4.253c-1.157,0.99-3.761,1.447-5.153,3.237
				c-0.498,0.643-0.539,1.281-0.293,1.895C68.329,27.399,71.488,29.858,73.791,32.794z"/>
			<path d="M63.633,24.469c0.469-1.366-2.037-3.608-2.255-5.166c-0.469-3.354,2.542-5.146,0.427-6.061
				c-1.422-0.614-4.06,1.511-5.867,4.483c-0.511,0.843-2.951,2.354-3.38,3.717c-0.155,0.493,0.004,0.931,0.357,1.304
				c3.643,0.203,7.087,0.989,10.19,2.246C63.356,24.884,63.546,24.721,63.633,24.469z"/>
			<path d="M59.369,24.734c-1.385-0.373-2.82-0.662-4.299-0.847c0.587,0.175,1.201,0.295,1.76,0.351
				C57.505,24.306,58.424,24.527,59.369,24.734z"/>
		</g>
	</g>
</g>
</svg>
