<?xml version="1.0" encoding="utf-8"?>
<!-- Generator: Adobe Illustrator 16.0.0, SVG Export Plug-In . SVG Version: 6.00 Build 0)  -->
<!DOCTYPE svg PUBLIC "-//W3C//DTD SVG 1.1//EN" "http://www.w3.org/Graphics/SVG/1.1/DTD/svg11.dtd">
<svg version="1.1" xmlns="http://www.w3.org/2000/svg" xmlns:xlink="http://www.w3.org/1999/xlink" x="0px" y="0px" width="100px"
	 height="100px" viewBox="0 0 100 100" style="enable-background:new 0 0 100 100;" xml:space="preserve">
<g id="bg" style="display:none;">
</g>
<g id="animal">
	<g>
		<path style="fill-rule:evenodd;clip-rule:evenodd;" d="M86.736,30.156c-4.998-4.528-10.139-4.047-14.932,1.074
			c-1.699,1.816-3.203,4.112-4.703,6.343c-2.768,4.121-5.748,7.765-9.225,10.326c-1.168,0.861-2.412,1.464-4.045,2.436
			c0.26-2.201,0.883-2.154,1.178-4.346c-0.084-1.454,0.156-3.64,0.025-3.669c-0.615-0.137-1.776,1.534-2.212,2.103
			C51.894,45.634,51,45.079,49,45.064V45c0,0,0.986,0,0.979,0S49,45,49,45v0.064c-1,0.015-1.894,0.727-2.823-0.484
			c-0.434-0.57-0.843-2.318-1.458-2.181c-0.127,0.028,0.235,2.176,0.151,3.629c0.295,2.192,0.979,2.125,1.236,4.326
			c-1.631-0.972-2.844-1.584-4.014-2.444c-3.475-2.562-6.439-6.21-9.209-10.331c-1.498-2.232-2.996-4.53-4.697-6.347
			c-4.791-5.121-9.928-5.603-14.926-1.075c-2.984,2.703-5.59,6.404-8.262,9.86c5.555-1.53,10.386,5.514,9.948,13.593
			c0.383-1.278,0.924-2.866,1.67-4.5c3.281-7.181,9.598-8.435,9.598-8.435c-6.344,1.853-9.408,10.129-10.545,14.146
			c2.809-3.181,5.814-3.889,9.002-2.1c3.344,1.873,4.781,5.023,4.805,10.937c0.557-2.283,2.209-7.42,5.697-10.672
			c0,0-4.338,6.58-4.768,11.143c2.129-2.538,4.402-3.216,6.883-2.217c2.672,1.073,4.066,4.21,3.984,8.212
			c1.34-0.462,2.748-1.184,4.184-1.375c1.258-0.166,2.268,0.669,2.887,2.749c0.432,1.458,1.098,2.234,1.656,2.132
			c0.561,0.103,1.227-0.674,1.658-2.132c0.617-2.08,1.629-2.915,2.885-2.749c1.438,0.191,2.846,0.913,4.184,1.375
			c-0.08-4.002,1.312-7.139,3.986-8.212c2.48-0.999,4.754-0.321,6.883,2.217c-0.43-4.562-4.77-11.143-4.77-11.143
			c3.492,3.252,5.143,8.389,5.699,10.672c0.021-5.913,1.461-9.063,4.803-10.937c3.189-1.79,6.195-1.081,9.004,2.1
			c-1.137-4.017-4.203-12.294-10.545-14.146c0,0,6.314,1.254,9.598,8.435c0.746,1.634,1.285,3.222,1.668,4.5
			c-0.438-8.08,4.393-15.124,9.947-13.594C92.328,36.56,89.721,32.858,86.736,30.156z"/>
		<g>
			<g>
				<circle style="fill:#FFFFFF;" cx="48.378" cy="48.027" r="1.763"/>
				<circle cx="48.377" cy="48.027" r="0.938"/>
			</g>
			<g>
				<circle style="fill:#FFFFFF;" cx="51.58" cy="48.027" r="1.764"/>
				<circle cx="51.58" cy="48.027" r="0.939"/>
			</g>
		</g>
	</g>
</g>
</svg>
