<?xml version="1.0" encoding="utf-8"?>
<!-- Generator: Adobe Illustrator 16.0.0, SVG Export Plug-In . SVG Version: 6.00 Build 0)  -->
<!DOCTYPE svg PUBLIC "-//W3C//DTD SVG 1.1//EN" "http://www.w3.org/Graphics/SVG/1.1/DTD/svg11.dtd">
<svg version="1.1" xmlns="http://www.w3.org/2000/svg" xmlns:xlink="http://www.w3.org/1999/xlink" x="0px" y="0px" width="100px"
	 height="100px" viewBox="0 0 100 100" style="enable-background:new 0 0 100 100;" xml:space="preserve">
<g id="bg" style="display:none;">
</g>
<g id="animal">
	<g>
		<path d="M72.144,18.703c-3.777,0.896-6.854,2.786-8.466,4.939c-1.699-1.684-4.791-2.745-8.35-3.232
			c-0.798-0.11-4.337-2.756-4.337-2.756s0.244,2.437-0.584,2.438c-1.018,0.003-2.038,0.044-3.046,0.126
			c-0.907,0.072-4.558-2.826-4.558-2.826s0.164,3.439-0.646,3.636c-2.13,0.515-4.001,1.24-5.374,2.159
			c-1.878-2.062-5.451-3.579-9.626-3.82c-6.304-0.365-13.91,2.977-11.799,5.985c2.545,3.626,4.727,6.942,11.03,7.307
			c2.27,0.132,4.405-0.134,6.221-0.696c-1.296,9.421,0.94,19.386,2.632,28.111c-2.755,2.611-4.416,5.973-4.416,9.643
			c0,8.318,8.522,12.891,19.037,12.891S68.9,78.035,68.9,69.717c0-3.719-1.706-7.119-4.529-9.748
			c1.562-8.823,3.605-18.931,2.298-28.417c2.323,0.763,5.371,0.86,8.549,0.106c6.145-1.457,7.714-5.102,9.587-9.116
			C86.36,19.21,78.288,17.246,72.144,18.703z"/>
		<g>
			<g>
				<circle style="fill:#FFFFFF;" cx="43.874" cy="39.652" r="5.842"/>
				<circle cx="43.874" cy="39.652" r="3.111"/>
			</g>
			<g>
				<circle style="fill:#FFFFFF;" cx="56.416" cy="39.828" r="5.104"/>
				<circle cx="56.416" cy="39.828" r="2.718"/>
			</g>
		</g>
		<g>
			<ellipse style="fill:#FFFFFF;" cx="42.246" cy="71.205" rx="4.2" ry="3.469"/>
			<ellipse style="fill:#FFFFFF;" cx="57.597" cy="71.059" rx="4.387" ry="3.322"/>
		</g>
	</g>
</g>
</svg>
