<?xml version="1.0" encoding="utf-8"?>
<!-- Generator: Adobe Illustrator 16.0.0, SVG Export Plug-In . SVG Version: 6.00 Build 0)  -->
<!DOCTYPE svg PUBLIC "-//W3C//DTD SVG 1.1//EN" "http://www.w3.org/Graphics/SVG/1.1/DTD/svg11.dtd">
<svg version="1.1" xmlns="http://www.w3.org/2000/svg" xmlns:xlink="http://www.w3.org/1999/xlink" x="0px" y="0px" width="100px"
	 height="100px" viewBox="0 0 100 100" style="enable-background:new 0 0 100 100;" xml:space="preserve">
<g id="bg" style="display:none;">
	<g style="display:inline;">
		<g>
			<path style="fill:#3FB4FF;" d="M100,49.998C100,77.607,77.62,100,50.006,100C22.399,100,0,77.607,0,49.998
				C0,22.404,22.399,0,50.006,0C77.62,0,100,22.404,100,49.998z"/>
		</g>
	</g>
</g>
<g id="animal">
	<path style="fill-rule:evenodd;clip-rule:evenodd;" d="M76.385,14.027c-2.212-1.911-6.703-1.121-8.559,2.384
		C63.873,23.878,57.8,26.419,53.863,27.277c-0.496,0.108-0.958-3.811-1.377-3.749c-0.814,0.119-1.47,4.162-1.902,4.177
		C50.208,27.717,50,27.707,50,27.707s-0.477-2.979-1.287-3.043c-0.438-0.034-0.976,2.906-1.588,2.804
		c-3.838-0.639-10.647-2.933-14.949-11.057c-1.855-3.505-6.349-4.295-8.561-2.384c-2.213,1.913-2.966,5.447-0.782,12.39
		c2.183,6.941,11.941,6.781,11.941,6.781s-7.069,9.066-6.385,13.509c0.685,4.441,6.424,11.87,7.282,16.975
		c0.859,5.104-0.975,9.441-0.812,12.268c0.162,2.824,2.868,3.8,4.514,5.568c1.644,1.77-0.361,1.129,3.253,3.636
		c3.613,2.507,11.137,2.507,14.75,0s1.607-1.866,3.251-3.636c1.646-1.769,4.354-2.744,4.516-5.568
		c0.162-2.826-1.672-7.164-0.813-12.268c0.859-5.104,6.597-12.533,7.281-16.975c0.685-4.442-6.383-13.509-6.383-13.509
		s9.423-0.09,11.605-7.031C79.017,19.225,78.598,15.94,76.385,14.027z"/>
	<path style="fill:#FFFFFF;" d="M59.897,72.459c0.8,1.391-0.039,3.374-1.873,4.431c-1.835,1.057-0.027-1.126-0.828-2.517
		c-0.8-1.39-3.905-1.459-2.07-2.516C56.959,70.801,59.097,71.07,59.897,72.459z"/>
	<path style="fill:#FFFFFF;" d="M54.363,49.877c0,8.621-1.695,15.61-2.246,15.61c-0.552,0,0.246-6.989,0.246-15.61
		s-0.798-15.61-0.246-15.61C52.668,34.267,54.363,41.256,54.363,49.877z"/>
	<path style="fill:#FFFFFF;" d="M59.694,49.877c0,8.621-4.365,15.61-4.934,15.61s2.876-6.989,2.876-15.61
		s-3.444-18.232-2.876-18.232S59.694,41.256,59.694,49.877z"/>
	<path style="fill:#FFFFFF;" d="M64.938,50.751c0,8.621-6.986,15.61-7.555,15.61s4.624-6.989,4.624-15.61
		s-3.444-18.232-2.876-18.232S64.938,42.13,64.938,50.751z"/>
	<path style="fill:#FFFFFF;" d="M67.938,28.898c-1.8,0.184,4.847-4.816,4.107-5.488c-1.035-0.942-3.325,1.056-3.011-0.431
		c0.32-1.517,3.169-4.639,5.084-3.012C74.882,20.615,73.673,28.314,67.938,28.898z"/>
	<path style="fill:#FFFFFF;" d="M61.942,66.068c-0.835,0.631-2.257,0.854-2.479,0.559c-0.224-0.295,0.838-0.995,1.671-1.626
		c0.835-0.63,1.785-1.306,2.009-1.011C63.366,64.285,62.777,65.438,61.942,66.068z"/>
	<path style="fill:#FFFFFF;" d="M40.104,72.459c-0.802,1.391,0.038,3.374,1.873,4.431c1.833,1.057,0.329-1.309,1.13-2.699
		c0.801-1.39,3.602-1.276,1.769-2.333C43.042,70.801,40.903,71.07,40.104,72.459z"/>
	<path style="fill:#FFFFFF;" d="M45.639,49.877c0,8.621,1.693,15.61,2.246,15.61c0.552,0-0.247-6.989-0.247-15.61
		s0.799-15.61,0.247-15.61C47.332,34.267,45.639,41.256,45.639,49.877z"/>
	<path style="fill:#FFFFFF;" d="M40.306,49.877c0,8.621,4.365,15.61,4.934,15.61s-2.875-6.989-2.875-15.61
		s3.443-18.232,2.875-18.232S40.306,41.256,40.306,49.877z"/>
	<path style="fill:#FFFFFF;" d="M35.062,50.751c0,8.621,6.986,15.61,7.555,15.61s-4.622-6.989-4.622-15.61
		s3.442-18.232,2.874-18.232S35.062,42.13,35.062,50.751z"/>
	<path style="fill:#FFFFFF;" d="M38.268,66.159c0.758,0.688,2.044,0.888,2.241,0.544c0.198-0.344-0.766-1.103-1.524-1.791
		c-0.758-0.687-1.623-1.421-1.821-1.078C36.966,64.179,37.508,65.472,38.268,66.159z"/>
	<g>
		<g>
			<circle style="fill:#FFFFFF;stroke:#000000;stroke-miterlimit:10;" cx="40.532" cy="46.71" r="9.39"/>
			<path d="M45.533,46.71c0,2.761-2.241,5.002-5.002,5.002c-2.762,0-5-2.241-5-5.002c0-2.759,2.238-4.999,5-4.999
				C43.292,41.711,45.533,43.951,45.533,46.71z"/>
		</g>
		<g>
			<path style="fill:#FFFFFF;stroke:#000000;stroke-miterlimit:10;" d="M68.893,46.994c0,4.528-3.673,8.201-8.205,8.201
				c-4.528,0-8.202-3.673-8.202-8.201c0-4.533,3.674-8.207,8.202-8.207C65.22,38.787,68.893,42.461,68.893,46.994z"/>
			<circle cx="60.688" cy="46.994" r="4.369"/>
		</g>
	</g>
	<path style="fill:#FFFFFF;" d="M32.301,27.938c1.88-0.281-5.763-3.686-5.111-4.57c0.912-1.239,3.59,0.217,3.026-1.229
		c-0.574-1.476-4.009-3.941-5.715-1.769C23.821,21.234,26.31,28.836,32.301,27.938z"/>
</g>
</svg>
