<?xml version="1.0" encoding="utf-8"?>
<!-- Generator: Adobe Illustrator 16.0.0, SVG Export Plug-In . SVG Version: 6.00 Build 0)  -->
<!DOCTYPE svg PUBLIC "-//W3C//DTD SVG 1.1//EN" "http://www.w3.org/Graphics/SVG/1.1/DTD/svg11.dtd">
<svg version="1.1" xmlns="http://www.w3.org/2000/svg" xmlns:xlink="http://www.w3.org/1999/xlink" x="0px" y="0px" width="100px"
	 height="100px" viewBox="0 0 100 100" style="enable-background:new 0 0 100 100;" xml:space="preserve">
<g id="bg" style="display:none;">
</g>
<g id="animal">
	<g>
		<path d="M71.076,55.01l0.326-0.561L85,61.268v-9.875l-12.66-1.08l0.098-0.625L85,50.762v-8.949l-13.69,4.227l-0.142-0.6L85,41.156
			v-9.248l-17.422,9.957c-3.397-2.961-8.537-5.232-14.48-6.383l1.733-6.674L39.88,30.846l-1.533,4.137
			C25.677,36.494,16,42.969,16,50.729c0,0.012,0,0.021,0,0.033c-1,0.695-1.391,1.801-1.391,3.051c0,2.104,1.778,3.811,3.882,3.811
			c0.133,0,0.299-0.008,0.429-0.021c3.999,4.871,12.132,8.395,21.772,9.08l3.584,4.51l6.232-4.809
			c6.968-0.939,13.112-3.385,16.979-6.711L85,69.678v-7.709L71.076,55.01z"/>
		<path style="fill:#FFFFFF;" d="M39.126,47.557c0,3.549-2.876,6.424-6.424,6.424c-3.546,0-6.423-2.875-6.423-6.424
			c0-3.545,2.876-6.422,6.423-6.422C36.25,41.135,39.126,44.012,39.126,47.557z"/>
		<path d="M36.124,47.557c0,1.891-1.532,3.422-3.421,3.422c-1.888,0-3.42-1.531-3.42-3.422c0-1.887,1.532-3.418,3.42-3.418
			C34.591,44.139,36.124,45.67,36.124,47.557z"/>
	</g>
</g>
</svg>
