<?xml version="1.0" encoding="utf-8"?>
<!-- Generator: Adobe Illustrator 16.0.0, SVG Export Plug-In . SVG Version: 6.00 Build 0)  -->
<!DOCTYPE svg PUBLIC "-//W3C//DTD SVG 1.1//EN" "http://www.w3.org/Graphics/SVG/1.1/DTD/svg11.dtd">
<svg version="1.1" xmlns="http://www.w3.org/2000/svg" xmlns:xlink="http://www.w3.org/1999/xlink" x="0px" y="0px" width="100px"
	 height="100px" viewBox="0 0 100 100" style="enable-background:new 0 0 100 100;" xml:space="preserve">
<g id="bg" style="display:none;">
</g>
<g id="animal">
	<g>
		<g>
			<g>
				<path d="M89.074,32.789c-1.353,0-2.45,1.098-2.45,2.452c0,0.514,0.161,0.991,0.433,1.387l-9.473,12.759
					c-1.67-1.079-3.671-1.733-5.828-1.815l-0.798-11.354c0.63-0.443,1.045-1.174,1.045-2.004c0-1.354-1.098-2.45-2.452-2.45
					c-1.354,0-2.45,1.097-2.45,2.45c0,1.135,0.775,2.081,1.822,2.359L69.7,47.663c-0.093,0.013-0.188,0.022-0.278,0.038
					c-1.624,0.261-3.128,0.853-4.429,1.698c-0.131,0.086-0.26,0.174-0.387,0.263c-0.13,0.094-0.26,0.188-0.385,0.285
					c-2.437,1.901-3.99,4.757-3.99,7.945c0,1.03,0.164,2.024,0.466,2.964c0.049,0.15,0.099,0.3,0.155,0.445
					c0.052,0.14,0.105,0.277,0.164,0.414c0.903,2.114,2.533,3.889,4.6,5.049c0.16,0.09,0.325,0.178,0.49,0.26
					c0.163,0.082,0.33,0.159,0.501,0.234c1.426,0.626,3.016,0.979,4.694,0.979c6.104,0,11.069-4.641,11.069-10.345
					c0-2.8-1.203-5.342-3.145-7.207l9.66-13.013c0.063,0.004,0.123,0.02,0.188,0.02c1.356,0,2.452-1.099,2.452-2.451
					C91.526,33.887,90.431,32.789,89.074,32.789z"/>
				<path d="M16.739,49.817c-0.616-0.203-1.274-0.316-1.959-0.316c-3.478,0-6.307,2.829-6.307,6.308
					c0,3.478,2.829,6.306,6.307,6.306c1.764,0,3.361-0.73,4.506-1.902c-1.732-2.021-2.804-4.791-2.804-7.847
					C16.482,51.488,16.572,50.637,16.739,49.817z"/>
				<path d="M25.693,50.348c0-3.07,0.984-5.879,2.606-8.04c-0.665-0.186-1.357-0.285-2.071-0.285c-3.987,0-7.371,3.065-8.498,7.274
					c-0.038,0.138-0.071,0.277-0.104,0.418c-0.032,0.143-0.062,0.285-0.09,0.431c-0.134,0.715-0.207,1.458-0.207,2.22
					c0,2.793,0.957,5.329,2.51,7.192c0.094,0.11,0.19,0.221,0.288,0.328c0.094,0.104,0.194,0.208,0.293,0.309
					c1.561,1.566,3.59,2.516,5.808,2.516c1.789,0,3.453-0.62,4.851-1.677C27.865,58.9,25.693,54.91,25.693,50.348z"/>
				<path d="M35.859,54.092c-0.122-0.377-0.229-0.764-0.32-1.159c-0.24-1.039-0.37-2.133-0.37-3.258
					c0-0.112,0.005-0.223,0.008-0.335c0.009-0.403,0.034-0.805,0.075-1.198c0.371-3.535,2.007-6.628,4.374-8.657
					c-1.004-0.4-2.079-0.62-3.199-0.62c-2.586,0-4.942,1.16-6.706,3.057c-0.1,0.106-0.199,0.216-0.295,0.328
					c-0.097,0.113-0.191,0.228-0.284,0.346c-1.612,2.044-2.601,4.767-2.601,7.753c0,4.369,2.114,8.177,5.215,10.118
					c0.126,0.078,0.254,0.155,0.382,0.228c0.129,0.072,0.258,0.139,0.39,0.204c1.195,0.6,2.516,0.934,3.899,0.934
					c1.54,0,2.996-0.41,4.295-1.142C38.502,59.218,36.764,56.889,35.859,54.092z"/>
				<path d="M44.42,57.87c-0.072-0.152-0.141-0.306-0.206-0.458c-0.734-1.698-1.149-3.609-1.149-5.632
					c0-2.652,0.712-5.118,1.928-7.158c0.086-0.146,0.173-0.287,0.264-0.427c0.086-0.133,0.175-0.261,0.265-0.389
					c1.483-2.108,3.539-3.665,5.895-4.35c-1.521-1.044-3.292-1.646-5.183-1.646c-1.812,0-3.516,0.555-4.992,1.52
					c-0.13,0.085-0.26,0.171-0.385,0.263c-0.127,0.092-0.252,0.186-0.375,0.284c-2.692,2.139-4.463,5.731-4.463,9.798
					c0,4.564,2.23,8.533,5.494,10.517c0.135,0.081,0.269,0.16,0.405,0.233c0.138,0.075,0.276,0.146,0.415,0.213
					c1.203,0.579,2.519,0.9,3.9,0.9c0.261,0,0.52-0.016,0.777-0.036c-0.939-0.91-1.746-1.996-2.38-3.213
					C44.558,58.15,44.487,58.011,44.42,57.87z"/>
				<path d="M52.433,59.891c-0.045-0.143-0.09-0.157-0.132-0.302c-0.043-0.149-0.083-0.212-0.123-0.364
					c-0.275-1.092-0.429-2.2-0.429-3.396c0-3.985,1.657-7.511,4.218-9.767c0.119-0.104,0.237-0.19,0.356-0.289
					c0.119-0.095,0.237-0.18,0.359-0.27c1.416-1.052,3.062-1.729,4.83-1.911c-1.861-2.265-4.484-3.678-7.386-3.678
					c-0.262,0-0.519,0.016-0.776,0.039c-0.183,0.016-0.363,0.038-0.544,0.065c-0.179,0.026-0.357,0.059-0.533,0.098
					c-2.571,0.548-4.809,2.218-6.32,4.557c-0.092,0.143-0.18,0.287-0.268,0.433c-0.091,0.158-0.18,0.316-0.265,0.479
					c-0.957,1.805-1.509,3.926-1.509,6.195c0,1.682,0.305,3.281,0.852,4.729c0.064,0.174,0.131,0.344,0.203,0.512
					c0.065,0.156,0.135,0.31,0.206,0.461c0.72,1.521,1.717,2.834,2.913,3.857c0.137,0.116,0.275,0.229,0.419,0.34
					c0.145,0.109,0.291-0.104,0.44-0.002C50.466,62.721,52.236,63,54.127,63c0.011,0,0.021,0,0.029,0
					C53.43,62,52.843,61.15,52.433,59.891"/>
				<path d="M60.342,62.29c-0.061-0.131-0.114-0.266-0.168-0.398c-0.059-0.14-0.112-0.28-0.162-0.422
					c-0.406-1.123-0.629-2.325-0.629-3.577c0-3.613,1.838-6.833,4.677-8.879c0.125-0.092,0.252-0.177,0.381-0.263
					c0.124-0.084,0.249-0.163,0.377-0.24c1.174-0.718,2.491-1.248,3.899-1.54c-1.543-1.461-3.472-2.392-5.578-2.551
					c-0.169-0.014-0.337-0.021-0.51-0.024c-0.049-0.001-0.097-0.005-0.146-0.005c-0.12,0-0.243,0.006-0.363,0.011
					c-1.925,0.082-3.71,0.803-5.202,1.988c-0.124,0.099-0.244,0.198-0.364,0.302c-0.125,0.109-0.246,0.222-0.365,0.337
					c-2.19,2.107-3.591,5.291-3.591,8.847c0,0.96,0.104,1.892,0.294,2.782c0.037,0.166,0.074,0.328,0.117,0.489
					c0.038,0.153,0.081,0.303,0.126,0.451c0.441,1.489,1.135,2.843,2.028,3.985c0.102,0.131,0.207,0.259,0.312,0.383
					c0.111,0.131,0.226,0.256,0.339,0.378c1.761,1.872,4.103,3.014,6.669,3.014c0.707,0,1.396-0.087,2.062-0.251
					C62.702,65.91,61.234,64.243,60.342,62.29z"/>
			</g>
			<g>
				<g>
					<circle style="fill:#FFFFFF;" cx="67.983" cy="57.927" r="4.061"/>
					<circle cx="67.983" cy="57.927" r="2.163"/>
				</g>
				<g>
					<circle style="fill:#FFFFFF;" cx="76.7" cy="58.049" r="3.548"/>
					<circle cx="76.701" cy="58.049" r="1.889"/>
				</g>
			</g>
		</g>
	</g>
</g>
</svg>
