<?xml version="1.0" encoding="utf-8"?>
<!-- Generator: Adobe Illustrator 16.0.0, SVG Export Plug-In . SVG Version: 6.00 Build 0)  -->
<!DOCTYPE svg PUBLIC "-//W3C//DTD SVG 1.1//EN" "http://www.w3.org/Graphics/SVG/1.1/DTD/svg11.dtd">
<svg version="1.1" xmlns="http://www.w3.org/2000/svg" xmlns:xlink="http://www.w3.org/1999/xlink" x="0px" y="0px" width="100px"
	 height="100px" viewBox="0 0 100 100" style="enable-background:new 0 0 100 100;" xml:space="preserve">
<g id="bg" style="display:none;">
</g>
<g id="animal">
	<g>
		<path d="M69.951,31.453l-2.416-12.344l-6.725,5.859c-3.268-1.414-6.863-2.199-10.641-2.199c-3.254,0-6.363,0.584-9.24,1.648
			l-9.232-5.689L30.87,30.535C25.692,35.652,22,42.873,22,50.875c0,3.619,0,8.59,0,13.607c1-0.225,2.089-0.547,2.771-0.973
			c2.641-1.648,4.28-4.836,4.392-9.479l0.933,0.02c-0.117,4.932-2.068,8.346-4.955,10.146C24.296,64.727,23,65.082,22,65.316
			c0,1.912,0,3.818,0,5.648c4,0.4,9.528,0.471,13.257-2.357c2.525-1.916,4.097-4.908,4.192-8.893l0.935,0.02
			c-0.102,4.242-1.478,7.449-4.212,9.521c-2.922,2.217-6.825,2.732-9.847,2.732c-0.254,0-0.977-0.004-1.215-0.01
			c-0.957-0.025-2.11-0.1-3.11-0.188C22,75.219,22,76,22,79c7,0,20.811,0,28.117,0c15.137,0,27.408-13.421,27.408-28.938
			C77.525,42.526,74.646,36.498,69.951,31.453z"/>
		<circle style="fill:#FFFFFF;" cx="40.438" cy="44.76" r="10.424"/>
		<circle style="fill:#FFFFFF;" cx="60.47" cy="44.76" r="10.423"/>
		<circle cx="40.438" cy="44.217" r="5.55"/>
		<circle cx="60.472" cy="44.486" r="5.55"/>
		<g>
			<path style="fill:#FFFFFF;" d="M50.041,48.201c-2.15,0-3.195,1.123-3.195,3.432c0,1.418,0.414,3.061,1.107,4.389
				c0.65,1.244,1.451,2.021,2.088,2.021c0.639,0,1.439-0.777,2.09-2.021c0.693-1.328,1.107-2.971,1.107-4.389
				C53.238,49.324,52.193,48.201,50.041,48.201z"/>
			<path d="M50.041,47.543c-2.521,0-3.854,1.414-3.854,4.09c0,3.086,1.869,7.068,3.854,7.068c1.986,0,3.854-3.982,3.854-7.068
				C53.895,48.957,52.562,47.543,50.041,47.543z M50.041,58.043c-0.637,0-1.438-0.777-2.088-2.021
				c-0.693-1.328-1.107-2.971-1.107-4.389c0-2.309,1.045-3.432,3.195-3.432c2.152,0,3.197,1.123,3.197,3.432
				c0,1.418-0.414,3.061-1.107,4.389C51.48,57.266,50.68,58.043,50.041,58.043z"/>
		</g>
	</g>
</g>
</svg>
