<?xml version="1.0" encoding="utf-8"?>
<!-- Generator: Adobe Illustrator 16.0.0, SVG Export Plug-In . SVG Version: 6.00 Build 0)  -->
<!DOCTYPE svg PUBLIC "-//W3C//DTD SVG 1.1//EN" "http://www.w3.org/Graphics/SVG/1.1/DTD/svg11.dtd">
<svg version="1.1" xmlns="http://www.w3.org/2000/svg" xmlns:xlink="http://www.w3.org/1999/xlink" x="0px" y="0px" width="100px"
	 height="100px" viewBox="0 0 100 100" style="enable-background:new 0 0 100 100;" xml:space="preserve">
<g id="bg" style="display:none;">
</g>
<g id="animal">
	<g>
		<g>
			<path style="fill-rule:evenodd;clip-rule:evenodd;" d="M48.246,86.757c-4.731-0.213-8.434-5.004-7.952-8.819
				c0.199-1.584,0.032-3.214,0.032-4.964c-3.695,0.072-6.034-1.944-8.022-4.488c-1.227-1.57-2.175-3.298-2.48-5.649
				c0.732,0.253,1.273,0.348,1.715,0.609c1.775,1.044,3.668,1.394,5.72,1.417c1.505,0.019,3.003,0.467,4.856,0.783
				c-0.755-0.512-1.231-0.976-1.803-1.197c-1.984-0.777-3.974-1.556-6.01-2.179c-9.192-2.809-15.761-8.514-19.473-17.428
				c-0.11-0.262-0.176-0.561-0.345-0.777c-1.833-2.307-3.007-4.924-3.717-7.765c0-1.046,0-2.093,0-3.138
				c0.658-2.02,1.176-4.101,2.021-6.038c0.624-1.429,1.677-2.671,2.802-3.881c-2.046,5.032-3.504,9.987-0.574,15.492
				c0.774-2.897,1.185-5.648,4.033-7.429c-1.109,3.135-2.718,5.92-1.488,9.142c0.9-2.804,1.594-5.689,3.912-7.824
				c-0.496,2.105-0.992,4.211-1.488,6.316c0.127,0.057,0.255,0.113,0.382,0.169c1.872-1.782,3.203-3.973,4.09-6.39
				c0.873-2.376,1.498-4.843,2.212-7.205c0.584,1.43,0.314,4.428-0.953,9.769c0.969-0.316,1.825-0.594,2.971-0.967
				c-0.261,0.453-0.352,0.681-0.501,0.858c-2.209,2.611-4.455,5.191-6.631,7.831c-1.296,1.573-1.361,4.117-0.069,5.688
				c3.873,4.709,8.767,7.941,14.575,9.792c0.067,0.021,0.164-0.044,0.57-0.162c-6.845-4.323-10.044-10.218-8.435-18.51
				c0.185,0.605,0.377,0.972,0.398,1.349c0.373,6.306,4.036,10.541,8.814,14.09c1.024,0.759,2.02,1.558,3.371,2.604
				c-1.198-5.799-3.898-10.551-6.213-15.451c0.094-0.075,0.189-0.15,0.284-0.225c0.376,0.372,0.777,0.72,1.127,1.117
				c3.983,4.504,6.317,9.86,8.194,15.501c0.584,1.748,1.722,3.341,2.759,4.902c0.608,0.917,4.017,0.799,4.82-0.059
				c4.501-4.796,8.062-10.169,10.424-16.354c0.837-2.194,2.169-4.202,3.305-6.278c0.211-0.385,0.569-0.688,0.86-1.029
				c0.13,0.066,0.257,0.131,0.384,0.196c-1.767,5.142-3.535,10.283-5.313,15.446c2.755-1.166,5.644-2.131,8.275-3.568
				c3.312-1.807,4.303-5.128,4.69-8.655c0.048-0.449,0.086-0.898,0.298-1.354c0.799,1.654,0.731,3.416,0.449,5.142
				c-0.41,2.531-1.643,4.688-3.694,6.229c-2.38,1.788-4.88,3.42-7.39,5.163c6.374-1.323,11.351-4.434,14.096-10.529
				c1.463-3.246,1.397-3.239-1.277-5.604c-1.848-1.638-3.644-3.336-5.418-5.056c-0.581-0.562-1.016-1.274-1.288-2.093
				c3.075,2.073,6.15,4.146,9.224,6.217c0.143-0.117,0.286-0.234,0.428-0.352c-0.205-0.526-0.315-1.121-0.634-1.567
				c-2.02-2.836-3.146-8.225-2.345-12.173c1.246,3.287,1.582,6.669,3.95,9.459c0.398-1.035,0.709-1.839,1.018-2.643
				c0.104-0.011,0.208-0.021,0.312-0.033c0.264,1.34,0.529,2.681,0.808,4.088c1.553,0.25,2.368-0.755,2.886-1.956
				c1.652-3.822,1.653-7.582-0.764-11.295c1.481,0.287,2.356,1.234,2.847,2.407c1.686,4.041,2.103,8.05-0.544,11.94
				c-0.505,0.745-0.629,1.739-1.015,2.578c-0.763,1.663-1.578,3.301-2.386,4.941c-4.537,9.217-12.207,14.247-21.977,16.519
				c-1.415,0.329-2.797,0.871-4.13,1.459c-0.497,0.219-0.811,0.852-1.048,1.577c2.146-1.78,4.637-1.164,6.974-1.44
				c0.995-0.117,1.928-0.747,2.892-1.137c0.536-0.219,1.08-0.42,1.687-0.655c0.226,4.661-4.982,9.77-10.08,10.031
				c-0.338,1.352-0.312,3.839-0.536,6.259C57.282,84.225,52.587,86.757,48.246,86.757z"/>
		</g>
		<g>
			<g>
				<circle style="fill:#FFFFFF;" cx="46.001" cy="72.229" r="3.309"/>
				<circle cx="46.001" cy="72.229" r="1.763"/>
			</g>
			<g>
				<circle style="fill:#FFFFFF;" cx="53.105" cy="72.33" r="2.891"/>
				<circle cx="53.104" cy="72.33" r="1.54"/>
			</g>
		</g>
	</g>
</g>
</svg>
