<?xml version="1.0" encoding="utf-8"?>
<!-- Generator: Adobe Illustrator 16.0.0, SVG Export Plug-In . SVG Version: 6.00 Build 0)  -->
<!DOCTYPE svg PUBLIC "-//W3C//DTD SVG 1.1//EN" "http://www.w3.org/Graphics/SVG/1.1/DTD/svg11.dtd">
<svg version="1.1" xmlns="http://www.w3.org/2000/svg" xmlns:xlink="http://www.w3.org/1999/xlink" x="0px" y="0px" width="100px"
	 height="100px" viewBox="0 0 100 100" style="enable-background:new 0 0 100 100;" xml:space="preserve">
<g id="bg" style="display:none;">
	<g style="display:inline;">
		<g>
			<path style="fill:#3FB4FF;" d="M100,49.999C100,77.607,77.62,100,50.006,100C22.399,100,0,77.607,0,49.999
				C0,22.404,22.399,0,50.006,0C77.62,0,100,22.404,100,49.999z"/>
		</g>
	</g>
</g>
<g id="animal">
	<g>
		<g>
			<path d="M84.835,69.85c0,0-0.48-3.151-2.301-4.92c1.232-0.316,2.084,0.427,2.084,0.427s-0.44-1.548-1.341-2.094
				C84.206,62.914,85,63.66,85,63.66s-0.287-1.889-0.317-2.109c-0.485-3.688-3.688-11.684-4.216-14.544
				c-0.528-2.861,1.431-12.659,0.9-19.989c-0.528-7.33-4.87-12.274-4.87-12.274s-3.516,0.961-10.623,8.062
				c-2.948,2.947-4.755,6.132-7.446,8.206C54.382,34.131,50,35.46,50,35.46s-4.381-1.329-8.43-4.449
				c-2.689-2.074-4.496-5.259-7.445-8.206c-7.106-7.101-10.622-8.062-10.622-8.062s-4.342,4.944-4.87,12.274
				c-0.529,7.33,1.428,17.128,0.9,19.989c-0.529,2.86-3.732,10.855-4.217,14.544C15.288,61.771,15,63.66,15,63.66
				s0.793-0.746,1.723-0.397c-0.9,0.546-1.106,2.333-1.106,2.333s0.617-0.982,1.85-0.666c-1.819,1.769-2.3,4.562-2.3,4.562
				s1.948-1.304,2.926-0.867c-2.153,2.008-2.776,4.49-2.776,4.49s14.271-1.071,19.83,2.198c0.369,0.217,1.653,1.389,1.653,1.389
				s-2.244,0.162-5.238,1.443c2.584-0.686,5.667-0.923,5.667-0.923l0.685,0.557c0,0-3.579,1.449-6.997,2.959
				c5.657-1.748,7.876-2.095,7.876-2.095s3.558,3.849,4.954,4.635C47.209,85.23,50,85.257,50,85.257s2.79-0.026,6.254-1.979
				c1.396-0.786,4.955-4.635,4.955-4.635s2.695,0.139,8.465,1.38c-3.42-1.509-7.587-2.244-7.587-2.244l0.686-0.557
				c0,0,2.104,0.077,4.687,0.763c-2.994-1.282-4.258-1.283-4.258-1.283s1.284-1.172,1.652-1.389
				c5.559-3.27,19.829-1.721,19.829-1.721s-0.623-2.96-2.775-4.968C82.886,68.188,84.835,69.85,84.835,69.85z"/>
			<g>
				<path style="fill:#FFFFFF;" d="M34.777,33.52c0-8.92-10.172-15.205-10.172-15.205s-3.941,5.174-3.549,10.71
					c0.527,7.435,3.587,18.667,3.587,18.667S34.777,40.021,34.777,33.52z"/>
				<path d="M26.035,24.047c0,0,2.229,1.279,2.88,3.146c0.65,1.867-0.06,5.048-0.06,5.048s-0.619-1.607-0.97-2.2
					c-0.396-0.668-1.458-1.465-1.458-1.465s1.148,2.538,1.367,4.841c0.261,2.766-0.008,5.428-0.008,5.428s-2.371-1.521-3.889-5.117
					c-2.481-5.875,0.453-10.493,0.453-10.493s-0.145,1.689-0.079,2.763c0.079,1.23,0.385,2.338,0.385,2.338s0.073-1.799,0.47-2.888
					C25.461,24.528,26.035,24.047,26.035,24.047z"/>
			</g>
			<g>
				<path style="fill:#FFFFFF;" d="M65.459,33.52c0-8.92,10.171-15.205,10.171-15.205s3.941,5.174,3.549,10.71
					c-0.528,7.435-3.589,18.667-3.589,18.667S65.459,40.021,65.459,33.52z"/>
				<path d="M74.201,24.047c0,0-2.229,1.279-2.88,3.146c-0.652,1.867,0.06,5.048,0.06,5.048s0.618-1.607,0.969-2.2
					c0.396-0.668,1.456-1.465,1.456-1.465s-1.146,2.539-1.365,4.841c-0.262,2.766,0.008,5.428,0.008,5.428s2.371-1.521,3.89-5.117
					c2.482-5.875-0.451-10.493-0.451-10.493s0.143,1.689,0.076,2.763c-0.076,1.23-0.385,2.338-0.385,2.338s-0.071-1.799-0.47-2.888
					C74.772,24.528,74.201,24.047,74.201,24.047z"/>
			</g>
		</g>
		<g>
			<g>
				<circle style="fill:#FFFFFF;" cx="39.971" cy="55.114" r="9.033"/>
				<path d="M44.781,55.114c0,2.657-2.155,4.81-4.81,4.81c-2.656,0-4.812-2.152-4.812-4.81c0-2.653,2.156-4.808,4.812-4.808
					C42.626,50.307,44.781,52.461,44.781,55.114z"/>
			</g>
			<g>
				<circle style="fill:#FFFFFF;" cx="61.169" cy="55.386" r="7.892"/>
				<path d="M65.373,55.386c0,2.32-1.883,4.203-4.203,4.203c-2.321,0-4.204-1.883-4.204-4.203c0-2.318,1.883-4.202,4.204-4.202
					C63.49,51.184,65.373,53.067,65.373,55.386z"/>
			</g>
		</g>
		<path style="fill:#FFFFFF;" d="M52.937,80.211c0,1.299-1.051,2.789-2.349,2.789h-1.175c-1.298,0-2.349-1.49-2.349-2.789
			l-0.382-2.105c0-1.297,1.188-2.105,2.655-2.105h1.327c1.466,0,2.654,0.809,2.654,2.105L52.937,80.211z"/>
	</g>
</g>
</svg>
