<?xml version="1.0" encoding="utf-8"?>
<!-- Generator: Adobe Illustrator 16.0.0, SVG Export Plug-In . SVG Version: 6.00 Build 0)  -->
<!DOCTYPE svg PUBLIC "-//W3C//DTD SVG 1.1//EN" "http://www.w3.org/Graphics/SVG/1.1/DTD/svg11.dtd">
<svg version="1.1" xmlns="http://www.w3.org/2000/svg" xmlns:xlink="http://www.w3.org/1999/xlink" x="0px" y="0px" width="100px"
	 height="100px" viewBox="0 0 100 100" style="enable-background:new 0 0 100 100;" xml:space="preserve">
<g id="bg" style="display:none;">
</g>
<g id="animal">
	<g>
		
			<ellipse transform="matrix(0.9362 0.3515 -0.3515 0.9362 14.7479 -23.1807)" style="fill-rule:evenodd;clip-rule:evenodd;" cx="71.21" cy="29.023" rx="11.77" ry="11.446"/>
		<ellipse style="fill-rule:evenodd;clip-rule:evenodd;" cx="30.774" cy="26.446" rx="13.03" ry="11.445"/>
		<g>
			<ellipse style="fill:#FFFFFF;" cx="50.521" cy="54.55" rx="30.973" ry="29.059"/>
			<path d="M50.521,85c-17.846,0-32.364-13.661-32.364-30.45c0-16.791,14.519-30.451,32.364-30.451s32.366,13.66,32.366,30.451
				C82.888,71.339,68.367,85,50.521,85z M50.521,28.737c-16.311,0-27.957,10.557-27.957,25.812
				c0,15.254,11.646,23.026,27.957,23.026s27.725-7.772,27.725-23.026C78.246,39.294,66.832,28.737,50.521,28.737z"/>
		</g>
		<path d="M74.02,50.226c0,6.422-4.63,15.048-10.422,11.627c-4.956-2.926-10.421-5.205-10.421-11.627
			c0-6.421,4.665-11.627,10.421-11.627S74.02,43.805,74.02,50.226z"/>
		<path d="M26.575,48.771c0,7.54,5.436,17.669,12.237,13.653c5.82-3.437,12.238-6.113,12.238-13.653s-5.479-13.654-12.238-13.654
			S26.575,41.231,26.575,48.771z"/>
		<g>
			<circle style="fill:#FFFFFF;" cx="38.925" cy="47.211" r="6.596"/>
			<circle cx="38.925" cy="47.211" r="3.513"/>
		</g>
		<g>
			<circle style="fill:#FFFFFF;" cx="64.189" cy="49.043" r="4.679"/>
			<circle cx="64.189" cy="49.043" r="2.492"/>
		</g>
		<path style="fill-rule:evenodd;clip-rule:evenodd;" d="M59.282,64.884c0,1.624-1.229,2.885-3.479,3.23
			c-2.626,0.403-1.508,3.42-4.688,3.42c-3.717,0-2.698-3.48-5.633-3.875c-1.773-0.238-2.533-1.41-2.533-2.775
			c0-2.648,3.656-2.939,8.166-2.939C55.626,61.944,59.282,62.235,59.282,64.884z"/>
	</g>
</g>
</svg>
