<?xml version="1.0" encoding="utf-8"?>
<!-- Generator: Adobe Illustrator 16.0.0, SVG Export Plug-In . SVG Version: 6.00 Build 0)  -->
<!DOCTYPE svg PUBLIC "-//W3C//DTD SVG 1.1//EN" "http://www.w3.org/Graphics/SVG/1.1/DTD/svg11.dtd">
<svg version="1.1" xmlns="http://www.w3.org/2000/svg" xmlns:xlink="http://www.w3.org/1999/xlink" x="0px" y="0px" width="100px"
	 height="100px" viewBox="0 0 100 100" style="enable-background:new 0 0 100 100;" xml:space="preserve">
<g id="bg" style="display:none;">
</g>
<g id="animal">
	<g>
		<g>
			<path style="fill-rule:evenodd;clip-rule:evenodd;" d="M59.04,21.216c0.258-0.04,0.516-0.082,0.774-0.119
				c0.316-0.045,0.634-0.084,0.952-0.13c0.316-0.045,0.42,0.041,0.425,0.359c0.008,0.424,0.062,0.839,0.305,1.199
				c0.076,0.111,0.188,0.21,0.306,0.28c0.394,0.234,0.791,0.465,1.199,0.674c0.222,0.113,0.307,0.264,0.238,0.496
				c-0.043,0.141-0.117,0.274-0.149,0.417c-0.033,0.148-0.075,0.315-0.038,0.455c0.198,0.727,0.625,1.287,1.288,1.656
				c0.213,0.119,0.258,0.284,0.111,0.477c-0.425,0.553-0.46,1.196-0.287,1.817c0.121,0.437,0.501,0.739,0.91,0.965
				c0.237,0.131,0.466,0.275,0.698,0.414c0.015,0.009,0.028,0.019,0.041,0.028c0.328,0.261,0.338,0.357,0.007,0.611
				c-0.529,0.409-0.679,0.967-0.545,1.57c0.084,0.379,0.277,0.746,0.577,1.036c0.212,0.206,0.405,0.434,0.588,0.666
				c0.056,0.071,0.083,0.206,0.055,0.287c-0.022,0.064-0.146,0.114-0.231,0.134c-0.208,0.045-0.424,0.052-0.627,0.107
				c-0.097,0.027-0.175,0.126-0.255,0.2c-0.38,0.352-0.462,0.79-0.399,1.286c0.082,0.646,0.293,1.255,0.504,1.865
				c0.056,0.158,0.164,0.297,0.24,0.448c0.079,0.154-0.004,0.229-0.146,0.267c-0.393,0.106-0.622,0.396-0.809,0.729
				c-0.239,0.426-0.333,0.885-0.222,1.358c0.093,0.391,0.238,0.763,0.652,0.957c0.112,0.053,0.182,0.194,0.331,0.362
				c-0.234,0.054-0.393,0.116-0.554,0.122c-0.321,0.01-0.643,0.001-0.963-0.021c-0.472-0.033-0.835,0.217-0.842,0.761
				c-0.002,0.129-0.055,0.258-0.057,0.388c-0.004,0.176,0.013,0.353,0.032,0.528c0.014,0.113,0.043,0.227,0.073,0.336
				c0.05,0.18,0.086,0.366,0.166,0.532c0.155,0.322,0.054,0.512-0.291,0.527c-0.682,0.033-1.294,0.228-1.716,0.807
				c-0.159,0.219-0.122,0.466-0.03,0.704c0.04,0.106,0.095,0.208,0.138,0.314c0.09,0.226,0.021,0.346-0.209,0.459
				c-0.449,0.221-0.875,0.491-0.98,1.043c-0.021,0.113-0.038,0.232-0.024,0.344s0.045,0.292,0.109,0.312
				c0.134,0.041,0.313,0.037,0.44-0.021c0.54-0.247,1.07-0.517,1.602-0.783c0.431-0.216,0.854-0.453,1.291-0.654
				c0.535-0.246,1.077-0.471,1.624-0.689c0.207-0.081,0.352,0.087,0.523,0.369c0.375,0.618,0.221,1.273,0.185,1.919
				c-0.027,0.468-0.091,0.935-0.158,1.399c-0.024,0.172-0.146,0.336-0.149,0.505c-0.007,0.259,0.057,0.517,0.079,0.775
				c0.012,0.138,0.023,0.282-0.004,0.416c-0.142,0.653-0.374,1.283-0.42,1.961c-0.029,0.458-0.122,0.913-0.216,1.363
				c-0.036,0.167-0.146,0.323-0.236,0.477c-0.28,0.479-0.585,0.935-0.959,1.353c-0.123,0.137-0.083,0.421-0.114,0.638
				c-0.082,0.571-0.19,1.146-0.561,1.601c-0.336,0.413-0.732,0.787-1.224,1.009c-0.223,0.1-0.496,0.082-0.748,0.117
				c-0.372,0.052-0.745,0.104-1.146,0.159c0.156,0.59,0.316,1.191,0.474,1.794c0.01,0.036,0.024,0.082,0.01,0.111
				c-0.171,0.334-0.113,0.66,0.013,0.993c0.051,0.137,0.062,0.288,0.091,0.434c0.02,0.096,0.01,0.207,0.059,0.285
				c0.238,0.389,0.015,0.679-0.186,0.98c-0.034,0.052-0.062,0.117-0.067,0.179c-0.018,0.334-0.065,0.675,0.151,0.975
				c0.009,0.013,0.019,0.029,0.019,0.045c0.032,0.448,0.315,0.817,0.395,1.246c0.075,0.407,0.096,0.813-0.275,1.13
				c-0.065,0.055-0.079,0.229-0.047,0.323c0.052,0.154,0.337,0.986,0.354,1.146c0.008,0.073,0.036,0.143,0.048,0.215
				c0.051,0.307,0.099,0.614,0.149,0.921c0.041,0.248,0.071,0.499,0.132,0.742c0.057,0.228-0.082,0.721-0.235,0.898
				c-0.073,0.084-0.094,0.238-0.092,0.36c0.008,0.484,0.022,0.971,0.059,1.453c0.025,0.35,0.096,0.694,0.135,1.043
				c0.033,0.298-0.112,0.527-0.337,0.698c-0.175,0.133-0.271,0.261-0.272,0.506c-0.002,0.308-0.102,0.615-0.151,0.924
				c-0.021,0.122-0.038,0.247-0.029,0.369c0.042,0.598-0.197,1.095-0.539,1.559c-0.02,0.024-0.049,0.05-0.053,0.077
				c-0.08,0.504-0.438,0.829-0.75,1.187c-0.048,0.056-0.079,0.129-0.136,0.174c-0.081,0.066-0.173,0.147-0.27,0.164
				c-0.343,0.059-0.479,0.169-0.548,0.494c-0.055,0.261-0.343,0.525-0.605,0.517c-0.155-0.006-0.202,0.057-0.232,0.187
				c-0.079,0.349-0.268,0.491-0.63,0.488c-0.166-0.001-0.308-0.006-0.463,0.137c-0.123,0.114-0.382,0.157-0.558,0.122
				c-0.251-0.05-0.427,0.08-0.541,0.209c-0.399,0.444-0.902,0.306-1.383,0.315c-0.009,0-0.021-0.002-0.023-0.008
				c-0.218-0.35-0.368-0.077-0.557,0.044c-0.16,0.102-0.352,0.152-0.531,0.223c-0.054,0.021-0.115,0.021-0.166,0.046
				c-0.455,0.214-0.734,0.187-1.087-0.153c-0.165-0.158-0.291-0.166-0.472-0.036c-0.303,0.219-1.018,0.183-1.299-0.036
				c-0.05-0.04-0.149-0.072-0.197-0.048c-0.154,0.075-0.308,0.164-0.437,0.275c-0.193,0.166-0.365,0.135-0.552,0.003
				c-0.059-0.041-0.128-0.099-0.189-0.095c-0.378,0.022-0.619-0.234-0.868-0.442c-0.115-0.097-0.142-0.302-0.208-0.457
				c-0.082-0.198-0.219-0.269-0.443-0.256c-0.587,0.032-1.068-0.204-1.427-0.664c-0.123-0.157-0.188-0.359-0.29-0.535
				c-0.023-0.041-0.085-0.07-0.133-0.081c-0.063-0.014-0.132-0.005-0.198-0.003c-0.391,0.009-0.586-0.141-0.653-0.529
				c-0.076-0.437-0.135-0.876-0.208-1.313c-0.041-0.242-0.194-0.383-0.43-0.449c-0.379-0.107-0.623-0.334-0.593-0.629
				c0.022-0.21,0.129-0.422,0.24-0.607c0.198-0.332,0.17-0.482-0.003-0.827c-0.146-0.293-0.364-0.598-0.247-0.967
				c0.061-0.191,0.176-0.372,0.197-0.566c0.02-0.178-0.018-0.381-0.092-0.547c-0.201-0.453-0.136-0.865,0.132-1.259
				c0.034-0.051,0.116-0.096,0.179-0.099c0.277-0.012,0.556,0.001,0.833-0.015c0.065-0.004,0.15-0.07,0.184-0.132
				c0.077-0.144,0.131-0.301,0.189-0.453c0.082-0.217,0.25-0.269,0.458-0.241c0.477,0.063,0.751-0.158,0.791-0.642
				c0.006-0.074-0.003-0.15,0.014-0.222c0.077-0.356,0.322-0.52,0.675-0.405c0.374,0.12,0.734,0.285,1.134,0.443
				c0.048-0.083,0.115-0.245,0.226-0.369c0.084-0.095,0.214-0.168,0.337-0.206c0.139-0.041,0.29-0.037,0.438-0.045
				c0.275-0.017,0.522-0.014,0.71,0.272c0.169,0.258,0.303,0.219,0.55,0.025c0.08-0.063,0.296-0.075,0.362-0.015
				c0.293,0.266,0.566,0.555,0.818,0.86c0.069,0.083,0.061,0.25,0.052,0.375c-0.014,0.197,0.064,0.285,0.255,0.319
				c0.388,0.071,0.52,0.314,0.459,0.711c-0.065,0.424-0.255,0.786-0.452,1.155c-0.115,0.219-0.188,0.463-0.253,0.704
				c-0.062,0.224-0.423,0.474-0.747,0.511c-0.165,0.018-0.332,0.065-0.485,0.132c-0.259,0.112-0.499,0.073-0.692-0.143
				c-0.134-0.148-0.148-0.488-0.035-0.675c0.054-0.089,0.11-0.18,0.142-0.278c0.139-0.427,0.101-0.471-0.352-0.483
				c-0.104-0.004-0.247-0.009-0.303-0.073c-0.165-0.188-0.378-0.142-0.573-0.155c-0.219-0.015-0.328,0.121-0.332,0.335
				c-0.009,0.331-0.137,0.581-0.439,0.742c-0.114,0.062-0.269,0.153-0.292,0.257c-0.048,0.211-0.025,0.441-0.018,0.663
				c0.001,0.037,0.071,0.082,0.119,0.104c0.405,0.19,0.513,0.362,0.475,0.803c-0.005,0.066-0.055,0.129-0.081,0.194
				c-0.033,0.083-0.112,0.198-0.084,0.246c0.057,0.091,0.171,0.195,0.269,0.203c0.423,0.034,0.748,0.265,1.063,0.505
				c0.069,0.054,0.069,0.22,0.074,0.336c0.007,0.182-0.022,0.353,0.27,0.288c0.135-0.03,0.294,0.021,0.437,0.057
				c0.276,0.068,0.54,0.078,0.821-0.009c0.206-0.064,0.439-0.033,0.658-0.058c0.405-0.046,0.836,0.063,1.199-0.229
				c0.062-0.049,0.195-0.04,0.286-0.018c0.184,0.045,0.304-0.042,0.444-0.139c0.162-0.113,0.344-0.236,0.531-0.267
				c0.246-0.038,0.345-0.229,0.481-0.368c0.236-0.242,0.438-0.518,0.653-0.778c0.005-0.007,0.013-0.013,0.016-0.02
				c0.073-0.24,0.162-0.477,0.218-0.72c0.135-0.589,0.255-1.181,0.381-1.772c0.005-0.024,0.012-0.049,0.013-0.072
				c0.018-0.56,0.038-1.118,0.047-1.678c0.002-0.083-0.024-0.194-0.081-0.247c-0.239-0.228-0.308-0.508-0.313-0.822
				c-0.01-0.469-0.042-0.938-0.044-1.405c-0.001-0.207-0.155-0.263-0.279-0.332c-0.376-0.209-0.496-0.561-0.513-0.942
				c-0.025-0.619-0.006-1.241-0.007-1.861c0-0.34-0.062-0.403-0.391-0.414c-0.529-0.015-0.642-0.214-0.59-0.74
				c0.05-0.496-0.012-1.003-0.026-1.506c-0.001-0.082-0.026-0.167-0.012-0.245c0.034-0.186-0.053-0.292-0.217-0.329
				c-0.274-0.061-0.406-0.232-0.41-0.5c-0.008-0.492-0.011-0.986,0-1.479c0.006-0.24-0.081-0.4-0.304-0.471
				c-0.092-0.029-0.183-0.059-0.298-0.094c-0.023,0.077-0.08,0.164-0.069,0.242c0.05,0.345-0.19,0.532-0.386,0.741
				c-0.222,0.238-0.517,0.268-0.819,0.256c-0.073-0.002-0.148-0.021-0.218-0.048c-0.263-0.105-0.533-0.2-0.782-0.334
				c-0.167-0.089-0.3-0.236-0.451-0.354c-0.05-0.039-0.109-0.099-0.161-0.096c-0.4,0.024-0.559-0.322-0.809-0.522
				c-0.046-0.037-0.066-0.135-0.062-0.203c0.022-0.322-0.005-0.662,0.294-0.9c0.051-0.041,0.065-0.129,0.106-0.212
				c0.061,0.011,0.125,0.022,0.197,0.035c0.211-0.387,0.414-0.766,0.624-1.142c0.074-0.134,0.229-0.259,0.229-0.389
				c0.002-0.134-0.137-0.271-0.221-0.401c-0.231-0.359-0.448-0.729-0.705-1.068c-0.177-0.234-0.405-0.431-0.62-0.635
				c-0.05-0.047-0.132-0.069-0.203-0.082c-0.574-0.106-1.086-0.373-1.557-0.692c-0.531-0.359-1.027-0.776-1.512-1.198
				c-0.219-0.189-0.389-0.442-0.547-0.688c-0.232-0.36-0.442-0.736-0.646-1.114c-0.099-0.183-0.168-0.383-0.237-0.58
				c-0.181-0.515-0.354-1.031-0.53-1.549c-0.365-1.069-0.433-2.188-0.504-3.299c-0.031-0.487,0.084-0.982,0.129-1.475
				c0.042-0.478,0.204-0.919,0.378-1.36c0.103-0.258,0.167-0.531,0.264-0.792c0.07-0.189,0.154-0.376,0.251-0.555
				c0.241-0.445,0.482-0.893,0.741-1.328c0.742-1.248,1.787-2.24,2.79-3.265c0.479-0.489,0.97-0.967,1.476-1.427
				c0.759-0.691,1.549-1.349,2.302-2.045c0.936-0.865,1.873-1.732,2.762-2.646c0.469-0.483,0.836-1.065,1.249-1.604
				c0.06-0.077,0.136-0.147,0.177-0.234c0.026-0.059,0.002-0.141,0.001-0.211c-0.068,0.003-0.14-0.007-0.203,0.013
				c-0.589,0.185-1.183,0.243-1.795,0.115c-0.431-0.091-0.866-0.217-1.3-0.216c-0.556,0.002-1.111,0.114-1.667,0.181
				c-0.204,0.023-0.41,0.041-0.611,0.081c-0.601,0.12-1.201,0.248-1.801,0.374c-0.376,0.08-0.753,0.16-1.13,0.244
				c-0.504,0.11-1.008,0.225-1.513,0.335c-0.489,0.106-0.98,0.209-1.471,0.312c-0.482,0.103-0.964,0.208-1.446,0.304
				c-0.21,0.042-0.422,0.07-0.635,0.09c-0.724,0.067-1.445,0.151-2.17,0.186c-0.728,0.033-1.419-0.125-2.042-0.526
				c-0.688-0.442-1.405-0.843-2.06-1.331c-0.538-0.4-1.001-0.902-1.244-1.558c-0.003-0.008-0.007-0.016-0.01-0.023
				c-0.226-0.494-0.147-0.809,0.301-1.108c0.089-0.06,0.221-0.048,0.329-0.083c0.77-0.25,1.561-0.117,2.342-0.142
				c0.633-0.02,1.268-0.012,1.898-0.052c0.247-0.016,0.493-0.118,0.731-0.205c0.668-0.241,1.341-0.475,1.996-0.75
				c0.446-0.188,0.874-0.425,1.293-0.67c0.518-0.301,0.971-0.688,1.352-1.153c0.037-0.044,0.063-0.101,0.107-0.135
				c0.165-0.126,0.143-0.232-0.01-0.354c-0.362-0.291-0.59-0.697-0.729-1.114c-0.089-0.266-0.027-0.615,0.062-0.897
				c0.138-0.439,0.346-0.861,0.719-1.168c0.308-0.255,0.643-0.442,1.031-0.582c0.492-0.178,0.924-0.027,1.373,0.072
				c0.16,0.034,0.327,0.13,0.443,0.246c0.177,0.175,0.29,0.152,0.451-0.014c0.256-0.264,0.5-0.558,0.807-0.748
				c0.455-0.285,0.964-0.483,1.444-0.731c0.285-0.147,0.532-0.335,0.756-0.587c0.287-0.325,0.652-0.596,1.021-0.833
				c0.452-0.291,0.934-0.539,1.417-0.776c0.365-0.18,0.756-0.311,1.133-0.469c0.603-0.252,1.183-0.531,1.707-0.941
				c0.363-0.283,0.809-0.462,1.224-0.675c0.407-0.21,0.814-0.421,1.237-0.597c0.29-0.121,0.605-0.178,0.907-0.271
				c0.306-0.094,0.607-0.2,0.91-0.3c0.087-0.029,0.17-0.071,0.258-0.08c0.166-0.019,0.37-0.024,0.418,0.164
				c0.028,0.11-0.051,0.285-0.137,0.379c-0.181,0.195-0.401,0.354-0.6,0.535c-0.061,0.056-0.102,0.133-0.153,0.201
				c0.071,0.045,0.136,0.103,0.211,0.135c0.452,0.192,0.917,0.356,1.354,0.577c0.235,0.119,0.439,0.316,0.623,0.512
				c0.067,0.073,0.032,0.24,0.044,0.365c-0.111-0.003-0.224,0.002-0.335-0.009c-0.372-0.035-0.745-0.077-1.118-0.108
				c-0.033-0.004-0.071,0.052-0.128,0.097c0.245,0.075,0.459,0.18,0.683,0.203c0.521,0.059,0.935,0.331,1.354,0.601
				c0.021,0.014,0.05,0.023,0.061,0.043c0.077,0.142,0.248,0.341,0.204,0.417c-0.072,0.127-0.277,0.236-0.435,0.247
				c-0.542,0.035-1.028,0.219-1.526,0.417c-0.494,0.197-0.9,0.497-1.28,0.844c-0.158,0.146-0.269,0.342-0.4,0.515
				C58.989,21.167,59.015,21.191,59.04,21.216z"/>
			<g>
				<circle style="fill:#FFFFFF;" cx="49.9" cy="26.174" r="4.062"/>
				<circle cx="49.899" cy="26.174" r="2.163"/>
			</g>
		</g>
	</g>
</g>
</svg>
