<?xml version="1.0" encoding="utf-8"?>
<!-- Generator: Adobe Illustrator 16.0.0, SVG Export Plug-In . SVG Version: 6.00 Build 0)  -->
<!DOCTYPE svg PUBLIC "-//W3C//DTD SVG 1.1//EN" "http://www.w3.org/Graphics/SVG/1.1/DTD/svg11.dtd">
<svg version="1.1" xmlns="http://www.w3.org/2000/svg" xmlns:xlink="http://www.w3.org/1999/xlink" x="0px" y="0px" width="100px"
	 height="100px" viewBox="0 0 100 100" style="enable-background:new 0 0 100 100;" xml:space="preserve">
<g id="bg" style="display:none;">
</g>
<g id="animal">
	<g>
		<path d="M78.33,60.209c0.047-0.061,0.092-0.121,0.139-0.183c-1.016-0.861-2.062-1.69-3.035-2.601
			c-0.359-0.336-0.691-0.833-0.781-1.304c-0.523-2.752-2.166-4.727-4.377-6.237c-1.516-1.036-3.18-1.855-4.814-2.793
			c-0.006,0.044-0.02-0.035,0.012-0.069c2.955-3.102,2.434-6.626,1.209-10.212c-0.918-2.69-2.396-5.093-3.988-7.425
			c-0.098-0.144-0.195-0.285-0.406-0.594c1.068,0.711,1.928,1.362,2.859,1.882c1.156,0.646,2.4,1.18,3.674,0.301
			c1.373-0.947,1.904-2.333,1.732-3.96c-0.25-2.396-1.58-4.217-3.252-5.795c-2.291-2.158-4.705-3.054-7.064-6.22
			c-0.426,0-0.85,0-1.275,0c-0.729,1.267-1.525,3.409-2.164,5.157C56.195,21.797,55.764,24,55.314,25c-2.375,0-4.625,0-7.059,0
			c0.07-1,0.137-2.101,0.213-3.134c0.027-0.362,0.068-0.747,0.113-1.108c0.189-1.464-0.445-2.523-1.748-3.08
			c-2.141-0.911-4.324-1.688-6.49-2.546C40.236,15.088,40.137,15,40.033,15c-0.729,0-1.455,0-2.184,0
			c0.287,1.267,0.127,2.442-1.072,3.259c-1.254,0.851-2.553,0.807-3.863,0.101c-0.129-0.07-0.26-0.149-0.461-0.26
			c-0.973,2.825-0.828,5.571,0.033,8.325c0.018,0.059,0.043,0.111,0.064,0.169c0.732,1.958,1.393,2.172,3.156,1.028
			c0.426-0.277,0.852-0.556,1.279-0.833c0.084,0.041,0.17,0.083,0.256,0.124c-0.234,0.705-0.395,1.445-0.723,2.105
			c-0.887,1.791-1.926,3.511-2.75,5.328c-0.619,1.366-1.109,2.816-1.455,4.276c-0.367,1.544,0.021,3.028,1.07,4.253
			c0.383,0.446,0.352,0.789,0.158,1.291c-1.334,3.45-1.947,6.999-1.299,10.694c0.734,4.182,3.195,7.238,6.385,9.824
			c2.803,2.271,6.008,3.724,9.467,4.657c0.252,0.069,0.5,0.146,0.725,0.299c-5.514-0.193-10.805-1.146-15.047-5.038
			c-3.242-2.977-4.418-6.836-3.996-11.129c0.24-2.453,0.828-4.9,1.209-7.04c-6.27,10.97-8.9,14.71-9.455,27.632
			c0,0,20.949,13.304,27.879,10.562c2.637-1.044,1.881-3.006,2.133-5.89c0.254-2.895,0.094-5.735-0.582-8.688
			c0.879,0.091,1.703,0.196,2.529,0.269c3.199,0.276,6.354,0.064,9.467-0.771c0.709-0.19,1.107-0.533,1.203-1.25
			c0.117-0.863,0.248-1.725,0.588-2.693c0.35,0.881,0.701,1.764,1.09,2.742c3.477-1.45,6.16-3.84,8.096-7.44
			c1.123,1.132,2.162,2.18,3.201,3.226c0.064-0.035,0.129-0.07,0.191-0.106c-0.768-1.272-1.496-2.57-2.322-3.807
			c-0.336-0.504-0.713-0.905-0.199-1.665C75.967,59.099,77.148,59.653,78.33,60.209z M45.545,70.307
			c0.594-0.006,1.154,0.263,1.037,0.936c-0.064,0.382-0.527,0.697-1.008,1.284c-0.469-0.592-0.906-0.908-0.984-1.297
			C44.467,70.61,44.98,70.313,45.545,70.307z M48.432,78.477c-0.943,1.311-2.67,1.523-4.527,0.6
			c-1.756-0.876-2.654-2.449-2.205-3.934c0.322-1.056,1.137-1.623,2.141-1.915c0.545-0.159,1.127-0.2,1.467-0.259
			c1.605,0.051,2.836,0.398,3.496,1.738C49.451,76.02,49.277,77.303,48.432,78.477z M67.926,62.969
			c-5.416,2.838-10.512-2.639-9.645-4.865c1.545-2.188,8.395-2.535,11.123-1.643C71.252,57.064,69.838,61.968,67.926,62.969z"/>
		<g>
			<g>
				<circle style="fill:#FFFFFF;" cx="48.418" cy="41.37" r="6.041"/>
				<circle cx="48.418" cy="41.37" r="3.217"/>
			</g>
			<g>
				<circle style="fill:#FFFFFF;" cx="60.488" cy="41.552" r="4.828"/>
				<circle cx="60.487" cy="41.552" r="2.571"/>
			</g>
		</g>
	</g>
</g>
</svg>
