<?xml version="1.0" encoding="utf-8"?>
<!-- Generator: Adobe Illustrator 16.0.0, SVG Export Plug-In . SVG Version: 6.00 Build 0)  -->
<!DOCTYPE svg PUBLIC "-//W3C//DTD SVG 1.1//EN" "http://www.w3.org/Graphics/SVG/1.1/DTD/svg11.dtd">
<svg version="1.1" xmlns="http://www.w3.org/2000/svg" xmlns:xlink="http://www.w3.org/1999/xlink" x="0px" y="0px" width="260px"
	 height="178px" viewBox="0 0 260 178" style="enable-background:new 0 0 260 178;" xml:space="preserve">
<g id="Layer_2">
</g>
<g id="Layer_1">
	<path style="fill:#3C3C3B;" d="M189.113,164l47.104-1.47l9.987-0.833l-0.252-1.828l0.047-0.496v-3.377l2.465,0.317l-1.355-2.452
		l-5.146-1.4c0,0-0.936-1.88-3.022-2.452c-2.088-0.573-26.603,0.364-26.603,0.364l-1.575,2.088l5.075,0.365l1.593,2.071
		l-0.494,1.658l-6.261-0.242l-0.098,1.035l-34.551,0.334l1.723,2.124l8.416,4.193H189.113z"/>
	<polygon style="fill:#4D4D4D;" points="255.625,126.593 254,119 250,119 247,110 240,109 239.562,109 239.558,108.805 
		236.109,106.777 232.037,111.71 230.782,108 204,108 204,101.942 202.48,96.402 159,96.872 159,96 158.312,96 158.47,110.705 
		156,113.206 156,118.84 152,113.487 152,107.574 153.185,107.762 153.061,102.129 152,101.565 152,92.93 152.715,93.492 
		151.92,91.99 150,90.77 150,88.424 152.278,88.986 151.492,86.451 150.936,82.697 150,81.945 150,78.286 147.772,63.547 
		145.822,78.003 145,81.008 145,82.792 143.906,82.039 143,84.105 143,89.551 134,89.926 134,81.665 133.296,79.506 131.817,81.195 
		130.515,66.081 128.146,81.477 127,84.293 127,89.551 123.976,86.733 120.477,90.582 109,91.615 109,89.551 107.158,89.362 
		104,101.848 104,106.448 103.182,104.194 97.375,101.565 94.378,104.757 72.931,105.604 71.172,99.971 69.589,106.26 
		67.811,106.252 61.433,110 58.054,110 42.53,115.678 41.317,109.394 40.031,117 33.271,117 33.196,121 28,121 28,115.46 
		19.486,114.787 18.25,110 13,110 9.75,116 7,116 5.25,123 3,123 2,129.584 1,141 258,141 258,134.806 	"/>
	<g>
		<g>
			<g style="enable-background:new    ;">
				<defs>
					<polygon id="SVGID_37_" style="enable-background:new    ;" points="9.99,194.801 11.154,14.683 202.364,45.693 
						174.182,162.026 					"/>
				</defs>
				<clipPath id="SVGID_2_">
					<use xlink:href="#SVGID_37_"  style="overflow:visible;"/>
				</clipPath>
				<g style="clip-path:url(#SVGID_2_);">
					<g>
						<g>
							<g>
								<path style="fill:#3FB4FF;" d="M168.031,153.411c-0.023,0.846-0.043,1.687-0.058,2.521
									c-0.015,0.833-0.025,1.661-0.032,2.484c-0.006,0.819-0.008,1.635-0.006,2.445c0.002,0.807,0.008,1.609,0.019,2.407
									c0.647-0.625,1.294-1.247,1.938-1.864c0.644-0.616,1.287-1.229,1.929-1.838c0.641-0.607,1.28-1.211,1.919-1.811
									c0.637-0.599,1.273-1.194,1.908-1.785c-0.626-0.19-1.252-0.387-1.88-0.589c-0.631-0.203-1.263-0.411-1.896-0.624
									c-0.636-0.214-1.273-0.433-1.912-0.657C169.319,153.876,168.676,153.646,168.031,153.411"/>
								<path style="fill:#009245;" d="M160.045,150.254c-0.037,0.914-0.07,1.823-0.1,2.728c-0.028,0.901-0.052,1.797-0.071,2.688
									c-0.019,0.888-0.033,1.77-0.044,2.647c-0.01,0.874-0.015,1.743-0.015,2.607c0.684-0.646,1.366-1.288,2.047-1.926
									c0.681-0.637,1.359-1.271,2.037-1.899c0.677-0.628,1.352-1.253,2.026-1.873c0.673-0.62,1.345-1.236,2.016-1.849
									c-0.646-0.236-1.296-0.478-1.945-0.726c-0.654-0.248-1.309-0.502-1.965-0.762c-0.66-0.261-1.321-0.527-1.984-0.8
									C161.381,150.817,160.714,150.539,160.045,150.254"/>
								<path style="fill:#D41440;" d="M151.763,146.462c-0.055,0.99-0.104,1.976-0.148,2.956c-0.045,0.976-0.085,1.946-0.119,2.912
									c-0.034,0.962-0.063,1.918-0.088,2.869c-0.024,0.947-0.044,1.889-0.059,2.825c0.726-0.67,1.448-1.336,2.17-1.997
									c0.721-0.66,1.439-1.315,2.157-1.968c0.717-0.65,1.432-1.296,2.146-1.938c0.713-0.641,1.425-1.277,2.136-1.91
									c-0.673-0.287-1.347-0.579-2.021-0.877c-0.678-0.3-1.357-0.605-2.038-0.917c-0.685-0.313-1.371-0.633-2.058-0.958
									C153.148,147.133,152.456,146.8,151.763,146.462"/>
								<path style="fill:#F1861E;" d="M143.143,141.967c-0.072,1.074-0.139,2.142-0.2,3.203c-0.061,1.058-0.117,2.109-0.167,3.155
									c-0.05,1.042-0.095,2.078-0.134,3.109c-0.039,1.026-0.073,2.048-0.101,3.064c0.769-0.695,1.536-1.386,2.301-2.071
									c0.764-0.684,1.526-1.362,2.287-2.037c0.759-0.673,1.517-1.342,2.272-2.006c0.755-0.662,1.509-1.321,2.262-1.976
									c-0.697-0.342-1.397-0.689-2.099-1.044c-0.705-0.356-1.411-0.719-2.119-1.088c-0.713-0.371-1.426-0.748-2.141-1.132
									C144.585,142.759,143.865,142.366,143.143,141.967"/>
								<path style="fill:#3FB4FF;" d="M134.229,136.747c-0.093,1.161-0.18,2.314-0.261,3.463c-0.081,1.144-0.155,2.282-0.223,3.414
									c-0.068,1.127-0.13,2.249-0.186,3.364c-0.056,1.111-0.106,2.218-0.15,3.317c0.817-0.718,1.632-1.432,2.446-2.141
									c0.812-0.708,1.622-1.41,2.43-2.107c0.807-0.696,1.611-1.388,2.415-2.074c0.801-0.685,1.601-1.364,2.399-2.038
									c-0.726-0.402-1.454-0.811-2.183-1.227c-0.734-0.417-1.469-0.842-2.206-1.273c-0.741-0.435-1.484-0.875-2.229-1.323
									C135.732,137.671,134.981,137.213,134.229,136.747"/>
								<path style="fill:#009245;" d="M124.879,130.641c-0.116,1.255-0.226,2.505-0.328,3.749
									c-0.103,1.239-0.198,2.473-0.288,3.699c-0.089,1.222-0.171,2.437-0.247,3.646c-0.076,1.204-0.146,2.401-0.208,3.592
									c0.871-0.744,1.739-1.482,2.605-2.215c0.865-0.731,1.728-1.458,2.588-2.18c0.859-0.72,1.716-1.435,2.572-2.145
									c0.853-0.708,1.705-1.411,2.555-2.109c-0.758-0.469-1.517-0.945-2.278-1.429c-0.765-0.486-1.532-0.98-2.3-1.481
									c-0.773-0.505-1.547-1.017-2.324-1.536C126.446,131.709,125.664,131.178,124.879,130.641"/>
								<path style="fill:#D41440;" d="M115.106,123.58c-0.143,1.361-0.278,2.717-0.406,4.064c-0.127,1.343-0.247,2.679-0.359,4.007
									c-0.112,1.323-0.217,2.64-0.313,3.949c-0.097,1.305-0.186,2.602-0.268,3.893c0.93-0.77,1.857-1.533,2.782-2.291
									c0.923-0.757,1.844-1.507,2.762-2.251c0.916-0.742,1.83-1.479,2.741-2.211c0.91-0.73,1.816-1.455,2.721-2.174
									c-0.79-0.544-1.581-1.096-2.374-1.656c-0.798-0.563-1.598-1.136-2.4-1.716c-0.807-0.584-1.616-1.176-2.427-1.776
									C116.746,124.813,115.927,124.201,115.106,123.58"/>
								<path style="fill:#F1861E;" d="M104.88,115.465c-0.173,1.474-0.337,2.941-0.492,4.401c-0.155,1.454-0.301,2.901-0.439,4.342
									c-0.138,1.434-0.267,2.86-0.39,4.28c-0.122,1.414-0.236,2.821-0.343,4.221c0.994-0.795,1.986-1.583,2.976-2.365
									c0.987-0.78,1.972-1.556,2.954-2.324c0.979-0.768,1.958-1.528,2.933-2.284c0.973-0.754,1.944-1.502,2.913-2.244
									c-0.825-0.626-1.653-1.262-2.483-1.905c-0.835-0.648-1.673-1.306-2.513-1.972c-0.846-0.671-1.693-1.351-2.543-2.04
									C106.596,116.88,105.739,116.177,104.88,115.465"/>
								<path style="fill:#3FB4FF;" d="M94.226,106.222c-0.206,1.597-0.402,3.187-0.59,4.77c-0.187,1.576-0.364,3.145-0.532,4.705
									c-0.167,1.555-0.326,3.102-0.476,4.642c-0.148,1.532-0.288,3.059-0.418,4.576c1.066-0.818,2.129-1.632,3.19-2.439
									c1.058-0.805,2.114-1.604,3.167-2.396c1.05-0.79,2.098-1.575,3.144-2.354c1.042-0.775,2.082-1.546,3.119-2.309
									c-0.868-0.718-1.736-1.446-2.606-2.184c-0.876-0.743-1.754-1.496-2.634-2.26c-0.886-0.769-1.774-1.547-2.665-2.336
									C96.028,107.842,95.128,107.037,94.226,106.222"/>
								<path style="fill:#009245;" d="M82.973,95.586c-0.244,1.733-0.478,3.459-0.702,5.176c-0.223,1.71-0.436,3.412-0.639,5.106
									c-0.202,1.688-0.395,3.366-0.577,5.038c-0.182,1.664-0.354,3.32-0.515,4.969c1.147-0.847,2.292-1.686,3.433-2.517
									c1.138-0.829,2.273-1.65,3.404-2.466c1.128-0.812,2.253-1.618,3.375-2.417c1.119-0.796,2.234-1.586,3.346-2.37
									c-0.908-0.824-1.818-1.658-2.731-2.503c-0.919-0.852-1.841-1.713-2.765-2.585c-0.931-0.879-1.864-1.77-2.799-2.671
									C84.862,97.438,83.919,96.518,82.973,95.586"/>
								<path style="fill:#D41440;" d="M71.109,83.456c-0.287,1.878-0.563,3.749-0.829,5.613c-0.264,1.855-0.517,3.703-0.758,5.544
									c-0.241,1.832-0.47,3.656-0.688,5.473c-0.218,1.808-0.425,3.608-0.621,5.4c1.239-0.87,2.474-1.733,3.706-2.588
									c1.228-0.853,2.452-1.697,3.672-2.534c1.217-0.834,2.43-1.66,3.639-2.479c1.206-0.815,2.408-1.624,3.605-2.425
									c-0.956-0.94-1.915-1.893-2.875-2.856c-0.968-0.972-1.938-1.955-2.912-2.951c-0.981-1.003-1.964-2.019-2.95-3.048
									C73.105,85.568,72.108,84.519,71.109,83.456"/>
								<path style="fill:#F1861E;" d="M58.599,69.626c-0.336,2.038-0.66,4.069-0.971,6.094c-0.31,2.015-0.608,4.022-0.894,6.022
									c-0.285,1.99-0.558,3.974-0.818,5.947c-0.259,1.966-0.507,3.923-0.743,5.871c1.338-0.893,2.673-1.776,4.003-2.652
									c1.327-0.872,2.649-1.736,3.968-2.592c1.314-0.853,2.625-1.697,3.932-2.533c1.302-0.834,2.6-1.658,3.894-2.476
									c-1.007-1.072-2.018-2.158-3.03-3.258c-1.021-1.107-2.043-2.229-3.07-3.365c-1.034-1.145-2.071-2.303-3.112-3.475
									C60.708,72.029,59.656,70.834,58.599,69.626"/>
								<path style="fill:#3FB4FF;" d="M45.471,53.954c-0.396,2.217-0.778,4.426-1.146,6.627c-0.366,2.191-0.719,4.375-1.058,6.55
									c-0.337,2.165-0.661,4.321-0.971,6.47c-0.309,2.138-0.605,4.268-0.888,6.389c1.454-0.91,2.904-1.812,4.349-2.704
									c1.44-0.889,2.875-1.77,4.305-2.642c1.425-0.869,2.845-1.729,4.261-2.58c1.41-0.849,2.815-1.688,4.216-2.52
									c-1.063-1.221-2.129-2.457-3.199-3.709c-1.078-1.262-2.159-2.539-3.244-3.832c-1.093-1.304-2.19-2.623-3.29-3.959
									C47.698,56.697,46.585,55.334,45.471,53.954"/>
								<path style="fill:#009245;" d="M31.457,36.022c-0.462,2.41-0.909,4.812-1.34,7.206c-0.43,2.383-0.844,4.758-1.243,7.124
									c-0.397,2.355-0.779,4.702-1.146,7.041c-0.365,2.328-0.715,4.647-1.05,6.959c1.583-0.924,3.162-1.839,4.735-2.745
									c1.567-0.901,3.129-1.795,4.686-2.678c1.55-0.881,3.095-1.751,4.634-2.612c1.533-0.857,3.06-1.706,4.58-2.544
									c-1.125-1.39-2.255-2.798-3.389-4.224c-1.143-1.438-2.29-2.893-3.439-4.365c-1.16-1.485-2.323-2.988-3.489-4.509
									C33.819,39.143,32.64,37.592,31.457,36.022"/>
								<path style="fill:#D41440;" d="M16.561,15.559c-0.541,2.621-1.063,5.234-1.568,7.842c-0.503,2.595-0.988,5.183-1.457,7.763
									c-0.466,2.568-0.915,5.129-1.347,7.681c-0.43,2.54-0.843,5.071-1.24,7.595c1.732-0.935,3.458-1.858,5.178-2.771
									c1.712-0.908,3.417-1.807,5.116-2.693c1.691-0.883,3.375-1.756,5.053-2.618c1.67-0.858,3.333-1.707,4.989-2.546
									c-1.194-1.587-2.393-3.194-3.595-4.82c-1.213-1.64-2.431-3.3-3.653-4.979c-1.232-1.694-2.469-3.409-3.709-5.143
									C19.075,19.118,17.82,17.349,16.561,15.559"/>
							</g>
						</g>
					</g>
				</g>
			</g>
		</g>
	</g>
	<path style="fill:#3C3C3B;" d="M13,154.598c0-1.466,82.966-1.043,91-0.004c-7.475,2.442-91,0.984-91,0.258V154.598z"/>
	<path style="fill:#3C3C3B;" d="M52,162.087c13.775-1.012,27.631-0.911,41.438-0.551c16.505,0.66,33.109-1.021,49.562,0.547
		c-13.887,2.985-30.821,0.03-45.286,0.549c-15.205,0.605-30.534,0.74-45.714-0.377V162.087z"/>
	<path style="fill:#3C3C3B;" d="M50,149.875c11.47-1.085,23.007-0.978,34.502-0.591c13.743,0.708,27.568-1.095,41.268,0.586
		c-11.563,3.201-25.663,0.033-37.707,0.589c-12.66,0.649-25.424,0.794-38.064-0.404V149.875z"/>
</g>
</svg>
