<?xml version="1.0" encoding="utf-8"?>
<!-- Generator: Adobe Illustrator 16.0.0, SVG Export Plug-In . SVG Version: 6.00 Build 0)  -->
<!DOCTYPE svg PUBLIC "-//W3C//DTD SVG 1.1//EN" "http://www.w3.org/Graphics/SVG/1.1/DTD/svg11.dtd">
<svg version="1.1" id="Layer_1" xmlns="http://www.w3.org/2000/svg" xmlns:xlink="http://www.w3.org/1999/xlink" x="0px" y="0px"
	 width="260px" height="240px" viewBox="0 0 260 240" style="enable-background:new 0 0 260 240;" xml:space="preserve">
<g>
	<g>
		<path style="fill-rule:evenodd;clip-rule:evenodd;fill:#F1861E;" d="M83.565,30.384c0,14.502-10.479,31.459-23.404,31.459
			c-12.927,0-23.404-16.958-23.404-31.459c0-14.501,10.478-26.258,23.404-26.258C73.086,4.125,83.565,15.882,83.565,30.384z"/>
		<path style="fill-rule:evenodd;clip-rule:evenodd;fill:#F1861E;" d="M61,61.392v3.229c0,0-0.749,0.179-1.709,0
			c-0.961-0.18-0.855-1.574-0.855-1.574l2.069-1.583L61,61.392z"/>
		<path style="fill-rule:evenodd;clip-rule:evenodd;fill:none;stroke:#3C3C3B;stroke-width:2;stroke-miterlimit:10;" d="
			M60.161,61.843c0,0,29.579,81.221,61.274,123.424"/>
	</g>
	<g>
		<path style="fill-rule:evenodd;clip-rule:evenodd;fill:#009245;" d="M63.166,59.664c6.074,15.578,1.918,38.184-11.967,43.598
			c-13.885,5.413-32.243-8.415-38.317-23.994c-6.073-15.579,0.259-32.597,14.145-38.01C40.913,35.844,57.092,44.085,63.166,59.664z"
			/>
		<path style="fill-rule:evenodd;clip-rule:evenodd;fill:#009245;" d="M52.316,102.266l1.353,3.468c0,0-0.932,0.585-2.039,0.794
			c-1.107,0.211-1.679-1.292-1.679-1.292l1.712-2.626L52.316,102.266z"/>
		<path style="fill-rule:evenodd;clip-rule:evenodd;fill:none;stroke:#3C3C3B;stroke-width:2;stroke-miterlimit:10;" d="
			M51.199,103.261c0,0,18.473,49.978,70.194,82.038"/>
	</g>
	<g>
		<path style="fill-rule:evenodd;clip-rule:evenodd;fill:#D41440;" d="M100.355,72.979c0,16.721-12.082,36.273-26.985,36.273
			c-14.904,0-26.985-19.552-26.985-36.273c0-16.722,12.081-30.276,26.985-30.276C88.273,42.703,100.355,56.258,100.355,72.979z"/>
		<path style="fill-rule:evenodd;clip-rule:evenodd;fill:#D41440;" d="M73,109.168v3.722c0,0,1.741,0.207,2.844,0
			c1.102-0.207,1.422-1.813,1.422-1.813l-3.037-1.824L73,109.168z"/>
		<path style="fill-rule:evenodd;clip-rule:evenodd;fill:none;stroke:#3C3C3B;stroke-width:2;stroke-miterlimit:10;" d="
			M73.37,109.252c0,0-0.052,33.747,48.023,76.047"/>
	</g>
	<g>
		<path style="fill-rule:evenodd;clip-rule:evenodd;fill:#3FB4FF;" d="M133.18,43.219c0,16.721-12.083,36.272-26.986,36.272
			c-14.903,0-26.984-19.552-26.984-36.272s12.081-30.275,26.984-30.275C121.097,12.943,133.18,26.498,133.18,43.219z"/>
		<path style="fill-rule:evenodd;clip-rule:evenodd;fill:#3FB4FF;" d="M107,78.971v3.722c0,0-0.782,0.207-1.89,0
			c-1.109-0.208-0.946-1.815-0.946-1.815l2.325-1.825L107,78.971z"/>
		<path style="fill-rule:evenodd;clip-rule:evenodd;fill:none;stroke:#3C3C3B;stroke-width:2;stroke-miterlimit:10;" d="
			M106.194,79.491c0,0-21.302,57.117,15.242,105.776"/>
	</g>
</g>
<g>
	<g>
		<polygon style="fill:#4D4D4D;" points="153.667,167.646 167.105,216.027 133.892,238.138 120.453,189.755 		"/>
	</g>
	<g>
		<polygon style="fill:#333333;" points="132.849,238.138 94.239,236.042 80.801,187.66 119.409,189.755 		"/>
	</g>
	<g>
		<polygon style="fill:#333333;" points="120.453,188.712 81.844,186.617 115.057,164.508 153.667,166.602 		"/>
	</g>
</g>
<g>
	<polygon style="fill:#333333;" points="145.226,129.733 147.931,151.426 126.287,149.462 123.581,127.771 	"/>
	<polygon style="fill:#4D4D4D;" points="145.64,129.733 154.28,121.031 156.985,142.724 148.345,151.426 	"/>
	<polygon style="fill:#333333;" points="123.581,127.357 132.221,118.655 153.866,120.617 145.226,129.319 	"/>
</g>
<g>
	<polygon style="fill:#333333;" points="204.734,97.88 200.747,129.298 175.132,122.417 179.119,91 	"/>
	<polygon style="fill:#4D4D4D;" points="205.263,97.88 221.024,95.708 217.037,127.126 201.276,129.298 	"/>
	<polygon style="fill:#333333;" points="179.119,90.47 194.88,88.298 220.495,95.18 204.734,97.352 	"/>
</g>
<g>
	<polygon style="fill:#333333;" points="177.978,54.97 169.206,48.74 167.669,44.458 176.441,50.688 	"/>
	<polygon style="fill:#333333;" points="161.62,51.664 167.482,44.646 169.019,48.927 163.158,55.946 	"/>
	<polygon style="fill:#333333;" points="163.345,55.946 169.206,48.927 177.978,55.156 172.117,62.174 	"/>
</g>
<g>
	<polygon style="fill:#333333;" points="159.711,96.608 141.284,98.46 136.799,88.295 155.227,86.443 	"/>
	<polygon style="fill:#333333;" points="136.799,87.983 137.39,74.933 155.817,73.081 155.227,86.131 	"/>
	<polygon style="fill:#4D4D4D;" points="155.538,86.131 156.128,73.081 160.613,83.246 160.023,96.297 	"/>
</g>
<g>
	<path style="fill-rule:evenodd;clip-rule:evenodd;fill:#333333;" d="M240.488,21.545c0.559,0.468,1.119,0.9,1.628,1.385
		c0.139,0.133,0.194,0.435,0.169,0.646c-0.09,0.773-0.188,1.55-0.358,2.31c-0.883,3.923-1.79,7.841-2.688,11.761
		c-0.009,0.039-0.012,0.08-0.012,0.076c0.841,0.156,1.672,0.301,2.497,0.471c0.234,0.048,0.455,0.164,0.679,0.257
		c0.896,0.375,1.185,1.51,0.618,2.323c-0.065,0.094-0.132,0.187-0.212,0.301c1.551,0.691,3.083,1.373,4.615,2.06
		c1.727,0.773,3.421,1.606,4.938,2.758c0.865,0.657,1.473,1.504,1.921,2.478c0.181,0.394,0.131,0.707-0.263,0.885
		c-0.562,0.252-1.158,0.444-1.757,0.59c-1.009,0.247-1.961-0.126-2.922-0.362c-1.872-0.461-3.634-1.235-5.436-1.899
		c-1.832-0.675-3.66-1.359-5.498-2.014c-0.976-0.349-1.966-0.674-3.029-0.538c-1.001,0.129-2,0.281-3.056,0.43
		c0.319,0.221,0.612,0.377,0.846,0.597c0.298,0.277,0.61,0.571,0.81,0.918c0.613,1.065-0.042,2.229-1.263,2.313
		c-0.527,0.036-1.03-0.05-1.511-0.271c-0.345-0.158-0.692-0.315-1.045-0.453c-0.965-0.374-1.593-1.04-1.831-2.099
		c-0.431,0.121-0.851,0.242-1.274,0.357c-4.103,1.118-8.206,2.233-12.309,3.35c-0.438,0.119-0.892,0.2-1.31,0.369
		c-0.807,0.327-1.597,0.137-2.394,0c-0.572-0.1-1.146-0.189-1.713-0.312c-0.357-0.077-0.695-0.218-0.891-0.552
		c0.399-0.042,0.798-0.016,1.147-0.136c0.808-0.278,1.591-0.625,2.383-0.945c3.366-1.359,6.731-2.72,10.097-4.079
		c1.644-0.663,3.289-1.323,4.933-1.985c0.066-0.026,0.128-0.065,0.242-0.125c-0.306-0.153-0.572-0.286-0.839-0.417
		c-2.803-1.381-5.649-2.679-8.395-4.166c-2.572-1.392-5.05-2.96-7.122-5.078c-0.079-0.082-0.265-0.117-0.383-0.092
		c-1.981,0.423-3.961,0.86-5.941,1.291c-1.062,0.23-2.134,0.426-3.188,0.69c-0.514,0.129-0.868-0.122-1.326-0.355
		c2.884-1.33,5.72-2.636,8.565-3.947c-0.105-0.202-0.221-0.379-0.293-0.573c-0.119-0.325,0.001-0.483,0.348-0.49
		c0.094-0.003,0.189,0.007,0.284,0.016c0.084,0.007,0.166,0.02,0.312,0.038c-1.243-2.905-2.471-5.775-3.701-8.648
		c0.447-0.112,0.762-0.023,1.082,0.323c1.406,1.521,2.848,3.008,4.278,4.508c0.085,0.089,0.181,0.17,0.305,0.288
		c0.403-0.729,0.789-1.428,1.173-2.127c0.26-0.472,0.526-0.94,0.772-1.418c0.116-0.226,0.238-0.229,0.454-0.13
		c0.413,0.188,0.552,0.443,0.51,0.923c-0.171,1.957-0.286,3.919-0.423,5.879c-0.039,0.539,0.288,1.017,0.858,1.234
		c0.799,0.305,1.601,0.601,2.397,0.909c3.819,1.478,7.635,2.959,11.452,4.44c1.161,0.449,2.323,0.896,3.479,1.356
		c0.208,0.083,0.374,0.072,0.513-0.089c0.435-0.502,0.903-0.981,1.285-1.52c1.127-1.589,2.057-3.3,2.881-5.06
		c1.301-2.781,2.532-5.595,3.792-8.395C240.401,21.722,240.438,21.648,240.488,21.545z"/>
</g>
</svg>
